<svg width="655" height="617" viewBox="0 0 655 617" fill="none" xmlns="http://www.w3.org/2000/svg">
<g clip-path="url(#clip0_6_901)">
<path d="M437.65 135.148C437.554 135.168 437.41 135.196 437.236 135.23C433.828 135.897 413.22 139.655 392.444 130.301C383.643 126.338 386.645 125.35 367.043 111.572C344.061 95.4187 338.163 95.5316 336.452 87.9997C333.034 72.9596 351.282 49.3163 363.359 50.873C366.539 51.2829 369.945 53.5236 375.241 52.0043C376.405 51.6704 381.499 50.2092 383.983 45.225C386.198 40.7788 384.322 37.5714 385.213 33.9249C387.551 24.3532 407.046 19.5764 424.137 22.9515C433.968 24.8927 441.614 30.1923 456.504 40.7123C482.422 59.0227 495.38 68.1779 498.293 82.2047C501.053 95.4995 494.428 101.228 499.247 115.46C503.733 128.711 510.86 127.826 513.312 138.546C517.258 155.796 502.612 174.729 496.51 182.615C489.821 191.262 483.423 196.008 474.93 202.308C464.269 210.216 458.939 214.17 452.531 213.767C440.912 213.038 406.387 215.521 405.936 204.156C405.768 199.897 363.894 203.384 384.513 157.529C387.042 151.905 436.585 157.912 437.239 154.681" fill="#2F2E41"/>
<path d="M457.702 164.491L493.314 227.279L391.09 251.715L397.601 173.106L457.702 164.491Z" fill="#FFB6B6"/>
<path opacity="0.1" d="M457.702 164.491L493.314 227.279L391.09 251.715L397.601 173.106L457.702 164.491Z" fill="black"/>
<path d="M383.433 210.989L493.688 205.559L542.691 237.235L540.394 440.863L591.693 555.801L332.899 497.88L352.807 410.998L343.619 228.185L383.433 210.989Z" fill="#6C63FF"/>
<path d="M2.96929 606.574C-0.550683 600.016 -0.966383 591.913 1.85751 584.899L43.821 480.681C46.9529 472.903 53.6855 467.877 60.9731 467.877H591.005C598.09 467.877 604.536 472.484 607.826 479.9L652.805 581.245C655.914 588.251 655.71 596.479 652.258 603.257C648.807 610.033 642.751 614.098 636.059 614.129L19.0842 617H19.007C12.4664 617 6.47498 613.107 2.96929 606.574Z" fill="white"/>
<path d="M2.96929 606.574C-0.550683 600.016 -0.966383 591.913 1.85751 584.899L43.821 480.681C46.9529 472.903 53.6855 467.877 60.9731 467.877H591.005C598.09 467.877 604.536 472.484 607.826 479.9L652.805 581.245C655.914 588.251 655.71 596.479 652.258 603.257C648.807 610.033 642.751 614.098 636.059 614.129L19.0842 617H19.007C12.4664 617 6.47498 613.107 2.96929 606.574ZM60.9731 470.234C54.4504 470.234 48.4245 474.732 45.6214 481.693L3.6579 585.911C1.13029 592.189 1.50218 599.441 4.65286 605.312C7.79088 611.16 13.1528 614.643 19.0073 614.643H19.0764L636.051 611.773C642.041 611.745 647.461 608.106 650.55 602.041C653.639 595.975 653.822 588.61 651.04 582.341L606.061 480.994C603.115 474.357 597.346 470.234 591.005 470.234H60.9731Z" fill="#3F3D56"/>
<path d="M541.658 577.159L322.928 559.383C319.699 559.121 317.123 556.547 316.367 552.827C315.61 549.107 316.915 545.432 319.691 543.463L368.058 509.16C369.286 508.289 370.695 507.866 372.123 507.947L561.322 518.112C563.824 518.246 566.058 519.861 567.299 522.432C568.54 525.002 568.579 528.097 567.405 530.71L548.567 572.623C547.303 575.436 544.824 577.179 542.156 577.179C541.991 577.179 541.824 577.172 541.658 577.159Z" fill="#3F3D56"/>
<path d="M321.032 549.013L538.862 566.66L556.09 522.767L369.309 514.109L321.032 549.013Z" fill="white"/>
<path d="M428.224 185.641C464.375 185.641 493.682 151.001 493.682 108.27C493.682 65.5384 464.375 30.8979 428.224 30.8979C392.073 30.8979 362.766 65.5384 362.766 108.27C362.766 151.001 392.073 185.641 428.224 185.641Z" fill="#FFB6B6"/>
<path d="M449.308 113.277C449.212 113.296 449.068 113.325 448.894 113.359C445.485 114.026 424.878 117.784 404.102 108.429C395.3 104.466 398.303 103.478 378.7 89.7003C355.719 73.5471 349.821 73.66 348.109 66.1281C344.692 51.088 362.939 27.4447 375.017 29.0014C378.197 29.4113 381.602 31.6521 386.899 30.1327C388.063 29.7989 393.157 28.3376 395.64 23.3534C397.856 18.9072 395.979 15.6998 396.87 12.0533C399.209 2.4816 418.704 -2.29517 435.795 1.07988C445.625 3.02109 453.271 8.32071 468.162 18.8407C494.079 37.1511 507.038 46.3063 509.951 60.3331C512.711 73.6279 506.086 79.3565 510.904 93.5882C515.391 106.84 522.517 105.955 524.97 116.674C528.916 133.925 514.269 152.857 508.168 160.744C501.478 169.39 495.081 174.136 486.588 180.436C475.927 188.344 470.597 192.298 464.189 191.896C452.57 191.166 441.013 178.72 440.563 167.356C440.394 163.096 441.897 161.819 445.618 147.177C447.168 141.077 448.243 136.041 448.896 132.81" fill="#2F2E41"/>
<path d="M494.172 527.815C498.384 528.012 501.589 532.472 501.821 537.304C502.062 542.319 499.112 546.939 495.567 549.327C491.415 552.124 486.233 552.573 481.558 552.092C477.352 551.659 472.777 550.113 470.071 546.008C467.794 542.555 466.956 537.337 468.893 533.416C470.813 529.53 474.896 528.456 478.312 530.016C481.926 531.667 484.199 535.553 484.222 540.144C484.247 545.235 481.76 549.938 478.27 552.752C474.506 555.788 469.768 556.764 465.288 556.752C460.406 556.738 455.545 555.527 451.054 553.278C446.847 551.171 442.642 548.133 439.634 544.004C436.813 540.134 435.125 534.763 436.691 529.743C437.975 525.625 441.219 523.101 444.934 523.45C448.336 523.769 451.777 526.102 453.286 529.818C454.99 534.009 454.225 539.038 452.057 542.786C449.554 547.113 445.597 549.544 441.203 549.896C436.527 550.27 431.896 548.305 428.049 545.269C424.487 542.458 421.357 538.859 417.533 536.52C415.692 535.394 413.69 534.678 411.606 534.682C408.953 534.685 406.402 535.715 403.821 536.313C401.634 536.82 399.38 537.115 397.222 536.288C395.375 535.581 393.647 534.286 392.484 532.428C391.383 530.67 390.997 528.468 391.62 526.382C392.109 524.745 394.329 525.45 393.835 527.103C392.695 530.919 396.606 533.723 399.343 534.073C401.419 534.339 403.562 533.629 405.565 533.076C407.653 532.498 409.788 531.908 411.947 531.971C419.595 532.193 424.651 539.921 430.818 544.113C437.301 548.521 446.796 548.828 450.766 540.069C452.208 536.888 452.506 532.659 450.525 529.687C448.874 527.21 445.943 525.729 443.286 526.209C439.949 526.812 438.287 530.568 438.408 534.303C438.556 538.874 441.251 542.587 444.126 545.325C450.524 551.419 459.009 554.523 467.193 553.978C471.033 553.722 475.114 552.54 478.096 549.519C480.674 546.908 482.433 542.662 481.814 538.595C481.278 535.075 478.78 532.405 475.762 532.051C472.676 531.688 470.263 534.279 470.125 537.923C469.97 542.023 472.031 545.445 475.017 547.312C478.4 549.427 482.499 549.689 486.248 549.458C490.227 549.214 494.375 547.974 497.16 544.392C499.535 541.336 500.436 536.803 498.247 533.267C497.281 531.707 495.827 530.607 494.172 530.53C492.699 530.461 492.692 527.746 494.172 527.815Z" fill="#6C63FF"/>
<path d="M389.485 524.907L390.656 516.348L455.641 369.536C456.717 367.105 459.267 366.161 461.325 367.434C463.382 368.706 464.18 371.72 463.104 374.152L398.148 520.898L392.837 526.98C392.209 527.695 391.303 527.849 390.53 527.371C389.756 526.893 389.347 525.925 389.485 524.907Z" fill="#3F3D56"/>
<path d="M433.781 431.502C441.113 433.134 448.008 436.817 453.888 442.243L454.219 442.328L454.286 441.938L525.111 455.051L519.98 343.701L573.656 308.951L560.969 497.17C558.221 509.19 547.668 516.211 537.549 512.749L447.392 482.096L447.617 480.785L447.302 480.685C440.096 482.982 432.53 483.205 425.237 481.336C406.94 476.96 394.019 462.253 396.378 448.49C398.736 434.727 415.479 427.121 433.781 431.502Z" fill="#FFB6B6"/>
<path d="M482.203 257.145L542.691 237.234C542.691 237.234 574.466 264.837 578.294 294.703C578.749 298.255 580.012 463.711 578.677 468.014C568.783 499.887 514.361 449.008 514.361 449.008L482.203 257.145Z" fill="#6C63FF"/>
<path d="M219.838 554.523L213.568 548.17C212.634 547.224 211.499 546.597 210.285 546.358L70.5648 518.832C67.3758 518.204 65.0202 515.482 64.4167 511.728C63.8137 507.973 65.1611 504.419 67.9336 502.453L117.779 467.102C119.445 465.921 121.406 465.549 123.302 466.055L300.456 513.363C303.9 514.283 306.198 517.572 306.311 521.744C306.424 525.915 304.308 529.372 300.92 530.55L226.85 556.3C226.147 556.545 225.43 556.665 224.72 556.665C222.952 556.665 221.221 555.925 219.838 554.523Z" fill="#3F3D56"/>
<path d="M152.552 349.23C159.478 352.508 165.639 357.699 170.519 364.369L170.83 364.527L170.959 364.161L238.297 393.232L310.195 255.631L349.942 284.749L266.578 442.76C261.914 453.924 250.41 458.397 241.049 452.685L157.618 401.981L158.054 400.746L157.761 400.576C150.316 401.18 142.857 399.668 136.007 396.166C118.774 387.685 108.506 370.3 113.074 357.337C117.642 344.374 135.313 340.743 152.552 349.23Z" fill="#FFB6B6"/>
<path d="M387.322 280.473L355.521 224.262C355.521 224.262 317.679 233.116 302.09 257.051C300.142 260.043 233.209 374.785 232.777 379.792C229.759 414.844 306.686 431.268 306.686 431.268L387.322 280.473Z" fill="#6C63FF"/>
<path d="M216.378 556.212L56.2155 530.046C50.8551 529.171 46.4309 524.631 44.9436 518.481L8.15865 366.3C6.91221 361.142 7.84274 355.801 10.7117 351.646C13.5807 347.49 17.8195 345.343 22.3458 345.751L183.709 360.364C189.547 360.892 194.448 365.751 195.904 372.454L231.488 536.188C232.623 541.413 231.488 546.936 228.45 550.962C225.834 554.429 222.125 556.365 218.258 556.365C217.634 556.365 217.006 556.315 216.378 556.212Z" fill="#3F3D56"/>
<path d="M180.677 244.504C181.613 245.721 185.011 244.481 191.767 241.951C196.903 240.028 197.694 239.329 198.183 238.827C199.9 237.063 200.35 235.208 202.051 227.015C205.105 212.308 205.199 210.847 206.767 207.726C207.307 206.652 208.671 204.088 208.338 203.771C207.997 203.444 206.521 206.115 203.793 207.124C201.134 208.107 199.937 206.532 197.668 206.933C194.734 207.452 192.989 210.746 190.252 216.078C187.829 220.8 187.524 222.7 184.127 232.082C183.165 234.74 182.389 236.797 181.794 238.423C175.124 245.781 168.509 253.237 161.953 260.758C162.079 260.529 162.198 260.314 162.301 260.127C165.205 254.857 165.6 252.032 165.558 249.915C165.489 246.485 164.104 243.873 161.335 238.788C158.621 233.805 156.051 230.517 152.953 226.594C148.893 221.451 146.863 218.88 146.054 219.049C140.28 220.257 138.736 266.732 146.001 275.043C144.981 275.904 144.137 276.806 143.526 277.694C137.307 269.532 126.653 260.413 114.851 259.29C107.575 258.598 103.559 261.297 102.31 262.224C96.5388 266.508 93.1072 275.084 94.8307 277.504C96.4377 279.76 101.079 274.631 110.176 274.913C116.523 275.11 121.481 277.832 124.425 279.448C130.6 282.838 132.858 286.17 137.411 288.454C135.277 290.532 133.586 293.127 132.524 295.547C132.156 295.995 131.79 296.445 131.422 296.894C126.725 293.765 121.435 291.469 115.89 290.942C108.614 290.25 104.598 292.948 103.349 293.876C99.4596 296.763 96.6409 301.595 95.7388 305.183C95.1492 305.323 94.6036 305.483 94.1041 305.655C92.3408 300.945 87.0935 295.978 82.2145 293.475C73.8159 289.166 62.9064 290.308 61.739 294.405C61.7018 294.536 61.6925 294.665 61.676 294.794C62.5966 286.014 63.8466 277.295 65.4084 268.64C65.4613 268.887 65.5279 269.137 65.6165 269.4C67.6897 275.555 73.292 281.462 80.9284 284.527C86.9219 286.933 89.4324 285.686 90.07 285.338C90.6792 285.005 93.3104 283.67 93.9551 281.016C95.1503 276.094 87.8307 261.55 83.2138 266.428C68.3797 282.103 66.344 269.41 65.6627 267.274C66.9239 260.431 68.3756 253.628 70.0037 246.863C70.0317 246.904 70.056 246.945 70.0852 246.987C73.3262 251.633 79.5633 254.906 86.8927 255.05C92.6453 255.164 94.5249 253.26 94.995 252.749C95.4438 252.261 97.4073 250.242 97.3413 247.733C97.2191 243.081 90.218 239.293 84.6165 238.636C79.4547 238.03 73.8963 239.899 71.1391 242.264C72.4211 237.198 73.8001 232.154 75.271 227.132C79.0382 228.951 84.3744 228.706 89.6167 225.936C93.9398 223.652 94.7804 221.459 94.9802 220.885C95.1711 220.336 96.0401 218.021 95.2515 216.178C93.7893 212.759 87.4522 212.817 83.0816 214.634C81.2815 215.382 79.5707 216.533 78.1045 217.835C80.7112 209.603 83.5527 201.431 86.6086 193.318L83.546 192.413C79.6422 202.776 76.2385 213.275 73.3135 223.889C72.9497 220.776 72.0382 217.46 70.8382 214.765C67.3093 206.843 59.772 200.9 57.223 202.828C56.7131 203.214 56.4985 203.842 56.3044 204.59C54.7419 210.608 55.9186 218.926 60.0337 226.568C63.2632 232.565 65.7507 233.407 66.3986 233.598C66.9457 233.758 69.0578 234.448 70.7939 233.56C69.6263 238.289 68.5468 243.038 67.5624 247.808C66.3779 244.332 64.0435 240.628 61.5747 238.067C55.8818 232.161 47.0444 229.797 45.2476 232.676C44.8883 233.252 44.878 233.929 44.9231 234.709C45.2853 240.99 48.9013 248.26 55.0565 253.656C59.8877 257.892 62.4652 257.626 63.1279 257.53C63.518 257.473 64.6968 257.335 65.8333 256.727C64.7783 262.524 63.8562 268.348 63.0591 274.197C61.465 267.654 56.0498 259.491 50.9392 262.088C41.8703 266.696 31.21 259.618 30.0366 262.713C29.7314 263.518 29.9841 264.349 30.2763 265.25C32.6258 272.501 39.1148 279.527 48.0248 283.258C55.0178 286.187 57.9763 284.771 58.7282 284.375C59.2265 284.112 60.8709 283.3 62.0959 281.793C61.2152 289.308 60.5402 296.862 60.0649 304.449C58.1741 299.569 52.8483 294.428 47.8625 291.778C39.1169 287.128 27.6783 288.147 26.408 292.419C26.1539 293.274 26.3543 294.098 26.654 295.023C29.0657 302.466 35.7258 309.677 44.8711 313.507C52.0488 316.513 55.0853 315.06 55.8571 314.653C56.4209 314.355 58.4122 313.372 59.6821 311.504C59.5194 315.012 59.3938 318.525 59.3144 322.045C59.2918 323.047 59.2785 324.05 59.262 325.052C59.159 325.249 59.0691 325.451 59.0093 325.661C58.7642 326.521 58.931 327.349 59.2187 328.253C59.2123 328.889 59.2089 329.526 59.2054 330.162C57.6053 328.448 55.6966 325.87 53.4007 322.197C51.3291 318.882 49.3619 321.314 48.0983 324.136C46.1172 323.615 44.2275 323.938 42.7414 325.579C32.7757 336.583 21.5981 330.745 21.44 334.026C21.3943 334.972 21.8233 335.725 22.3641 336.542C26.7155 343.112 35.2577 347.905 45.4061 348.41C53.371 348.807 56.0312 346.249 56.6974 345.56C56.9314 345.319 57.4559 344.797 58.024 344.063C58.4801 344.493 58.9241 344.884 59.3693 345.24C59.5445 351.539 59.858 357.831 60.3227 364.111C59.9449 364.151 59.5836 364.225 59.3144 364.257C55.4564 364.722 54.1565 358.569 48.3284 356.322C46.3929 355.575 42.6642 354.761 40.6993 356.322C40.4162 356.546 39.4508 357.392 37.9527 358.125C37.0672 358.559 36.3907 358.76 36.1217 358.847C33.7305 359.62 31.5158 361.741 30.0185 363.175C27.2037 365.871 25.7965 367.219 25.1357 369.668C24.9279 370.438 24.343 372.606 25.1357 374.718C25.5103 375.715 26.3797 377.199 29.7133 378.686C31.6945 379.569 37.4732 382.145 44.3612 379.407C45.9297 378.783 44.7324 379.007 50.7697 375.439C55.5195 372.632 58.2975 371.291 58.7041 368.586C58.8471 367.635 58.7029 366.475 59.3144 366.061C59.6542 365.83 60.0651 365.942 60.4752 366.117C60.8749 371.166 61.374 376.207 61.9789 381.237H56.5437C49.3268 381.237 42.8523 385.985 39.6476 393.628L19.3175 442.108C18.034 445.168 17.3555 448.591 17.3555 452.007V576.667C17.3555 588.958 25.8152 598.957 36.2137 598.957H83.6671C94.0656 598.957 102.525 588.958 102.525 576.667V461.879C102.525 459.081 102.087 456.341 101.222 453.735L81.846 395.384C79.496 388.307 74.4063 383.301 68.3221 381.751C70.2736 379.017 72.2282 376.285 74.198 373.561C76.6782 374.976 79.4066 376.137 82.3401 376.952C90.1006 379.108 93.1197 377.186 93.8835 376.658C94.6129 376.153 97.7746 374.102 98.3105 370.682C98.3679 370.316 98.3902 369.945 98.3861 369.572C106.335 377.21 110.482 380.975 113.512 379.719C116.116 378.64 117.603 375.103 118.455 371.93C119.344 372.075 120.287 372.225 121.292 372.384C132.18 374.102 137.666 374.899 139.765 371.851C142.669 367.632 139.912 359.498 139.152 357.256C137.501 352.384 134.96 349.419 133.382 347.616C131.333 345.273 125.492 338.598 116.296 337.708C114.297 337.514 112.501 337.663 110.672 338.115C110.035 337.426 109.362 336.751 108.621 336.109C107.209 334.887 105.816 333.982 104.315 333.275C106.617 330.294 108.925 327.323 111.243 324.364C111.61 324.561 111.959 324.752 112.279 324.928C119.875 329.098 121.544 333.181 128.849 335.331C132.163 336.306 135.915 337.411 136.844 335.751C138.494 332.802 131.49 320.667 120.666 312.458C121.396 311.544 122.128 310.634 122.859 309.723C123.849 310.214 124.721 310.692 125.464 311.1C133.06 315.27 134.729 319.353 142.034 321.503C145.348 322.478 149.1 323.583 150.029 321.923C151.501 319.291 146.084 309.345 137.211 301.399C139.649 300.485 142.88 299.471 147.065 299.601C153.412 299.798 158.37 302.52 161.314 304.136C168.91 308.306 170.579 312.389 177.884 314.539C181.198 315.514 184.95 316.618 185.879 314.958C188.332 310.574 171.67 285.874 151.74 283.978C150.193 283.831 148.802 283.843 147.545 283.953C147.371 283.613 147.183 283.263 146.984 282.908C153.727 283.164 166.897 280.885 178.106 290.188C181.339 292.87 187.618 299.18 198.126 304.364C201.484 306.02 203.173 306.835 203.638 306.155C205.303 303.719 191.459 283.676 171.981 273.802C164.259 269.888 159.488 269.517 156.094 270.11C156.617 269.405 157.127 268.678 157.617 267.947C165.202 259.155 172.882 250.455 180.631 241.871C180.256 243.242 180.268 243.972 180.677 244.504ZM83.3484 353.935C74.782 350.657 64.4089 352.418 61.7041 356.147C61.3227 352.842 60.9913 349.532 60.7182 346.215C64.6209 348.791 68.6931 349.481 76.418 350.7C79.7081 351.22 82.4973 351.652 84.8565 351.922C85.1734 352.937 85.5113 353.851 85.9035 354.725C85.9489 354.827 85.9977 354.923 86.0441 355.023L85.9756 355.115C85.0959 354.664 84.2146 354.266 83.3484 353.935ZM60.5885 309.526C60.8328 308.568 60.8378 307.548 60.6513 306.496C60.9178 302.685 61.2506 298.886 61.6442 295.099C61.6341 295.679 61.7897 296.259 62.0016 296.888C64.3831 303.957 70.818 310.743 79.5894 314.264C81.2256 314.92 82.6292 315.334 83.8383 315.587C83.3063 316.683 82.8988 317.75 82.6287 318.738C79.6384 315.899 75.7892 313.834 71.4217 316.024C70.2333 316.62 69.5278 318.801 68.915 321.409C64.8804 321.491 61.5089 322.486 59.9032 324.17C59.9118 323.468 59.9088 322.767 59.9247 322.064C60.0152 318.056 60.1823 314.06 60.4178 310.077C60.4821 309.899 60.5401 309.716 60.5885 309.526ZM59.9146 330.142C60.0884 330.563 60.2789 330.982 60.4767 331.399C60.2972 331.243 60.1135 331.075 59.9249 330.893C59.9198 330.643 59.9185 330.393 59.9146 330.142ZM66.8033 381.444C66.3335 381.37 65.8595 381.318 65.3809 381.286C64.2766 374.805 63.2567 368.328 62.4032 361.839C64.6478 366.05 68.3114 369.905 72.9781 372.829C70.9073 375.693 68.8537 378.567 66.8033 381.444ZM102.959 332.701C100.038 331.592 96.6098 331.061 91.8654 330.41C90.6631 328.434 89.4237 326.979 88.5076 325.932C88.0113 325.365 87.2496 324.24 86.2626 322.924C88.82 321.954 92.6367 320.225 98.0299 320.393C102.932 320.545 107 322.202 109.956 323.693C107.614 326.684 105.284 329.688 102.959 332.701ZM119.516 311.609C116.645 309.559 113.532 307.803 110.254 306.569C110.573 306.566 110.885 306.555 111.215 306.565C115.279 306.691 118.77 307.853 121.531 309.096C120.859 309.934 120.186 310.77 119.516 311.609Z" fill="#D67272"/>
</g>
<defs>
<clipPath id="clip0_6_901">
<rect width="655" height="617" fill="white"/>
</clipPath>
</defs>
</svg>
