<svg width="627" height="589" viewBox="0 0 627 589" fill="none" xmlns="http://www.w3.org/2000/svg">
<g clip-path="url(#clip0_8_940)">
<path d="M193.828 410.66L521.371 410.66C528.364 410.66 534.032 405.093 534.032 398.225V19.4464C534.032 12.5784 528.364 7.01089 521.371 7.01089L193.828 7.01089C186.836 7.01089 181.167 12.5784 181.167 19.4464L181.167 398.225C181.167 405.093 186.836 410.66 193.828 410.66Z" fill="white"/>
<path d="M180.389 398.226V19.4466C180.393 15.947 181.81 12.5919 184.33 10.1173C186.849 7.64279 190.265 6.25092 193.828 6.24707H521.371C524.935 6.25092 528.351 7.64279 530.87 10.1173C533.39 12.5919 534.807 15.947 534.811 19.4466V398.226C534.807 401.726 533.39 405.081 530.87 407.556C528.351 410.031 524.935 411.423 521.371 411.427H193.828C190.265 411.423 186.849 410.031 184.33 407.556C181.81 405.081 180.393 401.726 180.389 398.226ZM193.828 7.77741C190.678 7.78086 187.658 9.01144 185.43 11.1992C183.203 13.387 181.95 16.3533 181.946 19.4473V398.226C181.95 401.321 183.203 404.287 185.43 406.475C187.658 408.663 190.678 409.893 193.828 409.897H521.371C524.522 409.893 527.542 408.663 529.769 406.475C531.997 404.287 533.25 401.321 533.254 398.226V19.4466C533.25 16.3525 531.997 13.3862 529.769 11.1984C527.542 9.01068 524.522 7.78009 521.371 7.77665L193.828 7.77741Z" fill="#292A2E"/>
<path d="M260.851 588.691C260.739 588.691 260.629 588.667 260.527 588.622C260.425 588.576 260.335 588.51 260.262 588.427C260.189 588.344 260.135 588.247 260.103 588.141C260.072 588.036 260.064 587.925 260.08 587.817L286.12 411.316C286.133 411.215 286.166 411.118 286.218 411.03C286.27 410.942 286.339 410.865 286.421 410.803C286.503 410.742 286.597 410.697 286.697 410.672C286.797 410.646 286.902 410.641 287.004 410.655C287.106 410.67 287.205 410.704 287.293 410.757C287.382 410.809 287.459 410.878 287.52 410.96C287.581 411.042 287.625 411.135 287.649 411.234C287.673 411.332 287.677 411.435 287.661 411.535L261.617 588.036C261.59 588.217 261.498 588.383 261.357 588.503C261.217 588.623 261.037 588.69 260.851 588.691Z" fill="#292A2E"/>
<path d="M454.351 588.691C454.165 588.691 453.984 588.624 453.843 588.504C453.702 588.384 453.609 588.218 453.582 588.036L427.541 411.533C427.516 411.334 427.57 411.133 427.694 410.974C427.818 410.814 428 410.709 428.202 410.68C428.404 410.651 428.61 410.701 428.774 410.82C428.939 410.939 429.05 411.116 429.082 411.314L455.126 587.817C455.142 587.926 455.134 588.037 455.103 588.142C455.071 588.247 455.017 588.345 454.944 588.428C454.871 588.51 454.781 588.577 454.679 588.623C454.577 588.668 454.467 588.692 454.355 588.692L454.351 588.691Z" fill="#292A2E"/>
<g opacity="0.1">
<path d="M216.793 201.571L498.407 201.571C503.358 201.571 507.371 197.629 507.371 192.767V44.9854C507.371 40.1229 503.358 36.1811 498.407 36.1811L216.793 36.1811C211.843 36.1811 207.829 40.1229 207.829 44.9854V192.767C207.829 197.629 211.843 201.571 216.793 201.571Z" fill="#367CFF"/>
</g>
<g opacity="0.1">
<path d="M207.512 372.461V230.103C207.515 227.66 208.505 225.318 210.263 223.591C212.022 221.863 214.407 220.892 216.894 220.889H497.527C500.014 220.892 502.398 221.864 504.157 223.591C505.915 225.318 506.904 227.66 506.907 230.103V372.461C506.904 374.904 505.915 377.246 504.156 378.973C502.398 380.701 500.013 381.672 497.526 381.675H216.894C214.406 381.672 212.022 380.701 210.263 378.973C208.504 377.246 207.515 374.904 207.512 372.461Z" fill="#367CFF"/>
</g>
<path d="M471.026 360.663H476.595C477.434 360.663 478.113 359.996 478.113 359.173V254.671C478.113 253.848 477.434 253.18 476.595 253.18H471.026C470.187 253.18 469.508 253.848 469.508 254.671V359.173C469.508 359.996 470.187 360.663 471.026 360.663Z" fill="white"/>
<path opacity="0.3" d="M479.631 360.663H485.201C486.039 360.663 486.719 359.996 486.719 359.173V288.429C486.719 287.605 486.039 286.938 485.201 286.938H479.631C478.793 286.938 478.114 287.605 478.114 288.429V359.173C478.114 359.996 478.793 360.663 479.631 360.663Z" fill="#367CFF"/>
<path d="M402.161 360.663H407.731C408.569 360.663 409.248 359.996 409.248 359.173V348.553C409.248 347.73 408.569 347.063 407.731 347.063H402.161C401.323 347.063 400.643 347.73 400.643 348.553V359.173C400.643 359.996 401.323 360.663 402.161 360.663Z" fill="white"/>
<path opacity="0.3" d="M410.766 360.663H416.336C417.174 360.663 417.853 359.996 417.853 359.173V282.359C417.853 281.536 417.174 280.869 416.336 280.869H410.766C409.928 280.869 409.248 281.536 409.248 282.359V359.173C409.248 359.996 409.928 360.663 410.766 360.663Z" fill="#367CFF"/>
<path d="M436.593 360.663H442.163C443.001 360.663 443.681 359.995 443.681 359.172V297.818C443.681 296.994 443.001 296.327 442.163 296.327H436.593C435.755 296.327 435.076 296.994 435.076 297.818V359.172C435.076 359.995 435.755 360.663 436.593 360.663Z" fill="white"/>
<path opacity="0.3" d="M445.199 360.663H450.769C451.607 360.663 452.286 359.995 452.286 359.172V320.047C452.286 319.224 451.607 318.556 450.769 318.556H445.199C444.361 318.556 443.681 319.224 443.681 320.047V359.172C443.681 359.995 444.361 360.663 445.199 360.663Z" fill="#367CFF"/>
<path d="M298.863 360.663H304.433C305.271 360.663 305.951 359.996 305.951 359.173V275.458C305.951 274.635 305.271 273.967 304.433 273.967H298.863C298.025 273.967 297.346 274.635 297.346 275.458V359.173C297.346 359.996 298.025 360.663 298.863 360.663Z" fill="white"/>
<path opacity="0.3" d="M307.469 360.664H313.039C313.877 360.664 314.556 359.997 314.556 359.173V307.377C314.556 306.554 313.877 305.887 313.039 305.887H307.469C306.631 305.887 305.951 306.554 305.951 307.377V359.173C305.951 359.997 306.631 360.664 307.469 360.664Z" fill="#367CFF"/>
<path d="M367.729 360.663H373.298C374.136 360.663 374.816 359.995 374.816 359.172V288.981C374.816 288.158 374.136 287.491 373.298 287.491H367.729C366.89 287.491 366.211 288.158 366.211 288.981V359.172C366.211 359.995 366.89 360.663 367.729 360.663Z" fill="white"/>
<path opacity="0.3" d="M376.334 360.663H381.903C382.741 360.663 383.421 359.995 383.421 359.172V297.265C383.421 296.442 382.741 295.775 381.903 295.775H376.334C375.495 295.775 374.816 296.442 374.816 297.265V359.172C374.816 359.995 375.495 360.663 376.334 360.663Z" fill="#367CFF"/>
<path d="M333.296 360.663H338.866C339.704 360.663 340.384 359.996 340.384 359.173V254.671C340.384 253.848 339.704 253.18 338.866 253.18H333.296C332.458 253.18 331.779 253.848 331.779 254.671V359.173C331.779 359.996 332.458 360.663 333.296 360.663Z" fill="white"/>
<path opacity="0.3" d="M341.901 360.663H347.471C348.309 360.663 348.989 359.996 348.989 359.173V259.848C348.989 259.025 348.309 258.358 347.471 258.358H341.901C341.063 258.358 340.384 259.025 340.384 259.848V359.173C340.384 359.996 341.063 360.663 341.901 360.663Z" fill="#367CFF"/>
<path d="M264.432 360.663H270.001C270.84 360.663 271.519 359.996 271.519 359.173V254.671C271.519 253.848 270.84 253.18 270.001 253.18H264.432C263.594 253.18 262.914 253.848 262.914 254.671V359.173C262.914 359.996 263.594 360.663 264.432 360.663Z" fill="white"/>
<path opacity="0.3" d="M273.037 360.663H278.606C279.445 360.663 280.124 359.996 280.124 359.173V288.429C280.124 287.605 279.445 286.938 278.606 286.938H273.037C272.198 286.938 271.519 287.605 271.519 288.429V359.173C271.519 359.996 272.198 360.663 273.037 360.663Z" fill="#367CFF"/>
<path d="M229.999 360.663H235.569C236.407 360.663 237.087 359.995 237.087 359.172V297.818C237.087 296.994 236.407 296.327 235.569 296.327H229.999C229.161 296.327 228.482 296.994 228.482 297.818V359.172C228.482 359.995 229.161 360.663 229.999 360.663Z" fill="white"/>
<path opacity="0.3" d="M238.604 360.663H244.174C245.012 360.663 245.692 359.995 245.692 359.172V320.047C245.692 319.224 245.012 318.556 244.174 318.556H238.604C237.766 318.556 237.087 319.224 237.087 320.047V359.172C237.087 359.995 237.766 360.663 238.604 360.663Z" fill="#367CFF"/>
<path opacity="0.2" d="M486.796 89.258V180.748C486.796 181.137 486.638 181.511 486.358 181.786C486.078 182.061 485.698 182.216 485.302 182.216H229.897C229.501 182.216 229.121 182.061 228.841 181.786C228.561 181.511 228.404 181.137 228.404 180.748V132.178C228.404 131.92 228.473 131.667 228.604 131.444C228.735 131.221 228.923 131.036 229.151 130.907L274.37 105.263C274.601 105.133 274.863 105.065 275.129 105.067C275.395 105.069 275.656 105.141 275.884 105.275L296.241 117.224C296.495 117.374 296.789 117.445 297.086 117.43C297.382 117.415 297.667 117.313 297.904 117.138L319.279 101.379C319.497 101.218 319.755 101.119 320.026 101.092C320.298 101.065 320.571 101.111 320.817 101.226L347.195 113.548C347.477 113.68 347.794 113.722 348.101 113.668C348.408 113.614 348.691 113.467 348.908 113.247L378.195 83.7132C378.447 83.4576 378.786 83.3011 379.148 83.273C379.51 83.2448 379.869 83.347 380.16 83.5603L399.176 97.546C399.452 97.7488 399.79 97.852 400.134 97.8381C400.478 97.8242 400.806 97.694 401.064 97.4695L413.506 86.6095C413.757 86.3902 414.076 86.2604 414.411 86.2411C414.746 86.2218 415.078 86.3141 415.354 86.5032L433.012 98.6098C433.266 98.7836 433.569 98.8757 433.878 98.8735C434.188 98.8713 434.489 98.7749 434.74 98.5976L465.273 77.0144C465.508 76.8482 465.787 76.7526 466.076 76.739C466.365 76.7254 466.652 76.7945 466.902 76.938L486.057 87.9884C486.282 88.118 486.469 88.3034 486.599 88.5262C486.729 88.749 486.797 89.0013 486.796 89.258Z" fill="#367CFF"/>
<path opacity="0.61" d="M229.263 130.917C229.394 130.917 229.522 130.883 229.636 130.818L274.995 105.095L296.591 117.772C296.718 117.846 296.865 117.882 297.013 117.875C297.162 117.867 297.304 117.816 297.423 117.729L319.96 101.112L347.712 114.076C347.854 114.141 348.012 114.161 348.166 114.134C348.319 114.107 348.46 114.033 348.569 113.923L379.057 83.1735L399.573 98.2628C399.711 98.3642 399.88 98.4158 400.052 98.4089C400.224 98.4019 400.388 98.3368 400.517 98.2246L414.312 86.1807L433.324 99.2188C433.451 99.3057 433.602 99.3517 433.756 99.3506C433.911 99.3495 434.062 99.3013 434.187 99.2127L465.976 76.7462L485.559 88.0422C485.644 88.091 485.737 88.123 485.835 88.1364C485.932 88.1498 486.031 88.1442 486.126 88.12C486.221 88.0958 486.31 88.0535 486.388 87.9955C486.466 87.9374 486.532 87.8648 486.582 87.7818C486.632 87.6987 486.664 87.6068 486.678 87.5114C486.692 87.416 486.686 87.3188 486.661 87.2255C486.637 87.1323 486.594 87.0447 486.534 86.9677C486.475 86.8908 486.401 86.8261 486.317 86.7772L466.313 75.238C466.188 75.1661 466.045 75.1314 465.9 75.138C465.755 75.1447 465.615 75.1924 465.498 75.2755L433.744 97.7175L414.683 84.6496C414.546 84.5549 414.38 84.5086 414.212 84.5182C414.045 84.5277 413.885 84.5926 413.76 84.7023L399.978 96.7325L379.421 81.6156C379.276 81.5088 379.096 81.4577 378.915 81.4717C378.734 81.4858 378.565 81.5642 378.438 81.6921L347.867 112.527L320.189 99.5974C320.066 99.5399 319.929 99.5166 319.794 99.5301C319.658 99.5435 319.529 99.5933 319.42 99.6739L296.921 116.262L275.38 103.617C275.266 103.55 275.136 103.514 275.003 103.514C274.87 103.513 274.739 103.546 274.624 103.612L228.884 129.55C228.741 129.631 228.63 129.755 228.567 129.905C228.504 130.054 228.493 130.22 228.536 130.376C228.579 130.532 228.672 130.67 228.803 130.768C228.934 130.866 229.094 130.919 229.258 130.919L229.263 130.917Z" fill="#367CFF"/>
<path d="M63.1968 554.682C63.1968 554.682 66.7124 572.578 83.7752 573.578C100.838 574.578 97.1378 587.926 97.1378 587.926H31.9336V555.93L63.1968 554.682Z" fill="#367CFF"/>
<path d="M27.5117 228.17C27.5117 228.17 32.3877 222.789 32.3449 234.994C32.1837 280.521 29.0558 566.105 29.0558 566.105L71.9023 565.751L97.8574 226.32L27.5117 228.17Z" fill="#262626"/>
<path d="M136.36 554.682C136.36 554.682 139.876 572.578 156.939 573.578C174.002 574.578 170.301 587.926 170.301 587.926H105.097V555.93L136.36 554.682Z" fill="#367CFF"/>
<path d="M144.648 231.705C144.648 231.705 150 387.306 149.444 394.911L144.411 564.924L102.273 565.689L95.4777 388.76C95.4777 388.76 91.0238 339.954 79.0176 294.634C72.8751 271.374 69.1784 247.557 67.9856 223.557L144.648 231.705Z" fill="#262626"/>
<path d="M89.0576 342.025L92.5709 289.248C92.5709 289.248 96.18 311.189 96.18 330.101C96.18 339.345 94.2419 375.944 94.2419 375.944L89.0576 342.025Z" fill="#0A0A0A"/>
<path d="M27.0459 228.164L26.9058 228.172C26.9058 228.172 27.007 225.518 27.0459 228.164Z" fill="#333333"/>
<path d="M27.2217 228.164L27.0815 228.172C27.0815 228.172 27.1828 225.518 27.2217 228.164Z" fill="#333333"/>
<path d="M262.008 101.87C261.75 101.368 261.34 100.957 260.833 100.694C260.327 100.431 259.751 100.329 259.183 100.402C259.188 100.368 259.185 100.334 259.173 100.302C259.162 100.27 259.142 100.241 259.117 100.218C259.092 100.195 259.061 100.178 259.027 100.169C258.994 100.161 258.959 100.16 258.925 100.167L260.841 98.8192C261.414 98.4337 261.826 97.8573 262.001 97.1965C262.175 96.5357 262.1 95.8352 261.789 95.2246C261.463 94.6311 260.923 94.1779 260.276 93.9531C259.628 93.7282 258.919 93.7477 258.285 94.0079C258.29 93.9819 258.271 93.9559 258.267 93.9314L259.054 93.3769C259.593 93.0115 259.986 92.4747 260.168 91.8572C260.35 91.2397 260.309 90.5794 260.053 89.9881C259.884 89.6206 259.634 89.2944 259.321 89.0331C259.009 88.7719 258.641 88.582 258.245 88.4772C257.848 88.3725 257.433 88.3554 257.029 88.4273C256.625 88.4992 256.242 88.6582 255.909 88.8929L254.092 90.1724C254.087 90.1617 254.092 90.1495 254.085 90.1395C254.078 90.1296 254.058 90.1258 254.048 90.1151C254.465 89.6543 254.71 89.0678 254.743 88.452C254.776 87.8362 254.595 87.2277 254.23 86.7263C253.373 85.3711 251.393 85.6479 250.218 86.4747L239.526 93.7295L241.436 90.5686C241.822 89.9606 241.957 89.2316 241.816 88.5291C241.675 87.8266 241.267 87.2029 240.676 86.7844C240.363 86.5787 240.011 86.4377 239.64 86.3701C239.27 86.3026 238.89 86.3098 238.523 86.3914C238.155 86.473 237.809 86.6272 237.504 86.8447C237.2 87.0622 236.944 87.3383 236.751 87.6563L226.317 104.912C225.093 106.937 224.721 109.35 225.279 111.64C225.838 113.929 227.283 115.915 229.309 117.174C231.658 118.635 234.397 119.374 237.176 119.295C239.955 119.217 242.647 118.325 244.907 116.734L261.055 105.367C261.592 104.974 261.978 104.416 262.151 103.781C262.324 103.146 262.273 102.473 262.008 101.87Z" fill="#E98862"/>
<g opacity="0.25">
<path d="M243.512 97.3403C243.551 97.3932 243.61 97.4289 243.676 97.4397C243.741 97.4506 243.809 97.4357 243.864 97.3984L254.024 90.487C254.051 90.4682 254.075 90.4443 254.093 90.4165C254.111 90.3888 254.124 90.3578 254.13 90.3254C254.136 90.2929 254.135 90.2596 254.128 90.2274C254.121 90.1951 254.107 90.1646 254.088 90.1375C254.069 90.1103 254.045 90.0872 254.016 90.0693C253.988 90.0515 253.957 90.0392 253.924 90.0333C253.891 90.0274 253.857 90.028 253.824 90.035C253.791 90.0419 253.76 90.0552 253.732 90.074L243.572 96.9854C243.517 97.0234 243.479 97.0815 243.467 97.147C243.454 97.2125 243.469 97.2801 243.508 97.3349L243.512 97.3403Z" fill="#0C0C0C"/>
</g>
<g opacity="0.25">
<path d="M246.492 101.825C246.531 101.878 246.59 101.914 246.655 101.925C246.721 101.936 246.789 101.921 246.844 101.884L258.182 94.1702C258.238 94.1321 258.276 94.0739 258.288 94.0084C258.3 93.9429 258.285 93.8754 258.246 93.8207C258.206 93.7678 258.147 93.7318 258.081 93.72C258.015 93.7082 257.947 93.7215 257.89 93.7573L246.552 101.471C246.497 101.509 246.459 101.567 246.447 101.633C246.434 101.698 246.449 101.766 246.488 101.82L246.492 101.825Z" fill="#0C0C0C"/>
</g>
<g opacity="0.25">
<path d="M249.69 106.701C249.73 106.754 249.789 106.79 249.855 106.801C249.921 106.812 249.988 106.797 250.043 106.759L259.087 100.607C259.143 100.569 259.181 100.511 259.193 100.445C259.205 100.379 259.19 100.312 259.152 100.257C259.113 100.202 259.054 100.165 258.987 100.153C258.921 100.141 258.852 100.156 258.796 100.194L249.751 106.346C249.695 106.384 249.657 106.442 249.645 106.508C249.633 106.574 249.648 106.641 249.686 106.696L249.69 106.701Z" fill="#0C0C0C"/>
</g>
<path d="M220.16 100.98L189.513 152.245L152.118 104.07L121.063 131.569L174.098 199.032L174.445 199.512C176.568 202.368 179.397 204.646 182.663 206.131C185.93 207.616 189.529 208.26 193.119 208.002C196.709 207.744 200.174 206.592 203.186 204.656C206.198 202.719 208.658 200.062 210.335 196.933L253.915 119.418L220.16 100.98Z" fill="#367CFF"/>
<path d="M186.509 158.41C186.447 158.41 186.387 158.396 186.332 158.368C186.286 158.346 186.245 158.314 186.212 158.276C186.179 158.238 186.154 158.193 186.138 158.146C186.122 158.098 186.116 158.047 186.12 157.997C186.124 157.947 186.139 157.898 186.162 157.854L189.167 152.072C189.19 152.027 189.222 151.987 189.261 151.955C189.3 151.922 189.345 151.897 189.394 151.882C189.442 151.866 189.493 151.861 189.544 151.864C189.595 151.868 189.645 151.882 189.691 151.905C189.736 151.928 189.777 151.959 189.81 151.998C189.843 152.036 189.868 152.08 189.884 152.128C189.9 152.176 189.906 152.226 189.902 152.276C189.898 152.326 189.884 152.375 189.86 152.42L186.856 158.202C186.823 158.264 186.773 158.317 186.712 158.354C186.651 158.391 186.581 158.41 186.509 158.41Z" fill="#0C0C0C"/>
<path d="M149.96 151.953L149.025 168.146L149.802 168.189L150.738 151.997L149.96 151.953Z" fill="#0C0C0C"/>
<path d="M51.2091 34.7691C51.2091 34.7691 49.7732 52.7921 45.5645 59.289C33.4486 77.9935 29.7523 99.1476 41.5334 110.356C53.3145 121.564 129.288 122.581 135.34 97.179C140.438 75.7932 130.067 73.3695 127.745 55.6509C126.695 47.6351 123.744 30.8174 123.744 30.8174" fill="#0A0A0A"/>
<path d="M116 93.1178C115.869 93.101 114.414 116.82 86.3592 114.752C66.9379 113.323 60.0133 93.0841 59.5679 93.0841C61.6617 92.6474 65.1882 92.0134 66.118 91.524C69.1758 89.9103 72.96 88.2308 73.9458 82.3977C74.5142 79.0327 73.5503 61.8356 73.8469 58.4346L103.659 64.9697C103.242 72.1541 100.327 88.809 110.545 91.7565C112.246 92.2436 114.077 92.6926 116 93.1178Z" fill="#E98862"/>
<path opacity="0.52" d="M104.077 84.95C103.61 83.4719 103.309 81.948 103.18 80.4057C102.852 76.8858 102.917 73.3413 103.375 69.8355C97.3153 69.0324 91.6069 66.5759 86.8981 62.7451C86.3445 64.7535 83.2999 73.5287 84.1432 75.436C85.7364 79.0428 93.224 84.95 104.077 84.95Z" fill="#0C0C0C"/>
<path d="M100.125 77.4848C88.3596 78.4683 73.2069 73.6776 70.2387 58.2694L67.5593 44.3663C64.5903 28.9581 70.4232 14.9356 85.1944 12.19C99.9648 9.44445 113.412 19.8831 116.381 35.2913L117.567 41.4463C118.706 47.3589 121.119 75.7303 100.125 77.4848Z" fill="#E98862"/>
<path d="M113.357 42.1178C114.38 42.1178 115.209 41.3036 115.209 40.2991C115.209 39.2947 114.38 38.4805 113.357 38.4805C112.334 38.4805 111.505 39.2947 111.505 40.2991C111.505 41.3036 112.334 42.1178 113.357 42.1178Z" fill="#0C0C0C"/>
<path d="M94.388 44.6066C95.4107 44.6066 96.2397 43.7923 96.2397 42.7879C96.2397 41.7835 95.4107 40.9692 94.388 40.9692C93.3654 40.9692 92.5364 41.7835 92.5364 42.7879C92.5364 43.7923 93.3654 44.6066 94.388 44.6066Z" fill="#0C0C0C"/>
<path d="M104.798 56.12H104.827C105.425 56.0044 106.016 55.8563 106.598 55.6765C107.466 55.4019 108.605 54.9484 108.456 54.1775C108.287 53.2995 104.014 44.2826 103.526 43.257C103.484 43.1675 103.407 43.0982 103.312 43.0644C103.218 43.0307 103.113 43.0352 103.022 43.0769C102.931 43.1187 102.86 43.1944 102.826 43.2872C102.792 43.3801 102.796 43.4826 102.839 43.5721C104.662 47.4122 107.597 53.7255 107.71 54.3167C107.613 54.5905 106.171 55.1113 104.686 55.3874C104.588 55.4041 104.501 55.4576 104.443 55.5365C104.386 55.6153 104.361 55.7132 104.376 55.8094C104.391 55.9055 104.443 55.9922 104.522 56.051C104.601 56.1097 104.7 56.1359 104.798 56.1239V56.12Z" fill="#0C0C0C"/>
<path d="M102.611 62.7733C105.02 62.4659 107.322 61.6069 109.331 60.2656C109.416 60.2117 109.475 60.1272 109.496 60.0305C109.517 59.9338 109.498 59.833 109.443 59.7501C109.388 59.6673 109.302 59.6092 109.203 59.5887C109.105 59.5682 109.002 59.5869 108.918 59.6408C104.569 62.4238 100.248 62.8735 96.4227 60.9409C96.3454 60.8998 96.2658 60.8628 96.1845 60.83C96.0901 60.7973 95.9864 60.8026 95.896 60.8447C95.8056 60.8868 95.7358 60.9623 95.7018 61.0547C95.6678 61.1471 95.6723 61.249 95.7145 61.3381C95.7566 61.4273 95.8329 61.4964 95.9267 61.5306C95.9571 61.5428 96.0046 61.5688 96.0762 61.607C98.0876 62.626 100.363 63.0321 102.611 62.7733Z" fill="#0C0C0C"/>
<path d="M55.7434 49.2119L68.9806 46.8273C79.0082 42.842 82.041 25.791 82.041 25.791C82.041 25.791 94.2255 37.4517 123.744 30.821C123.744 30.821 117.826 -9.61114 74.2163 2.14139C60.1545 5.93246 50.0623 19.8501 51.3237 38.4506C52.2005 51.4879 55.7434 49.2119 55.7434 49.2119Z" fill="#0A0A0A"/>
<path d="M72.06 62.7929C67.5718 63.6273 63.0237 59.5869 62.171 55.1779C61.3184 50.7689 64.4922 47.6615 68.9812 46.8271L71.8622 49.351L75.9191 62.0755L72.06 62.7929Z" fill="#E98862"/>
<path d="M106.231 35.8846C107.541 35.0546 109.053 34.5855 110.611 34.5264C111.377 34.4932 112.145 34.5728 112.887 34.7627C113.623 34.9484 114.331 35.2241 114.997 35.5833C115.091 35.6287 115.162 35.7086 115.196 35.8057C115.23 35.9027 115.224 36.0091 115.179 36.1016C115.133 36.1941 115.053 36.2652 114.954 36.2995C114.855 36.3338 114.747 36.3284 114.653 36.2846L114.625 36.2716C114.01 35.975 113.359 35.7553 112.689 35.6177C112.026 35.4784 111.345 35.4384 110.67 35.4992C109.33 35.6092 108.045 36.0654 106.943 36.8215L106.907 36.8467C106.844 36.8919 106.772 36.9244 106.696 36.9424C106.62 36.9604 106.541 36.9634 106.464 36.9514C106.386 36.9394 106.312 36.9126 106.246 36.8725C106.179 36.8323 106.121 36.7797 106.075 36.7175C106.029 36.6553 105.996 36.5849 105.977 36.5101C105.959 36.4354 105.956 36.3579 105.968 36.2819C105.98 36.206 106.008 36.1332 106.049 36.0677C106.09 36.0021 106.143 35.9451 106.206 35.8999L106.231 35.8846Z" fill="#0C0C0C"/>
<path d="M94.4224 38.6149C93.1171 38.3017 91.7507 38.3325 90.4614 38.7044C89.8094 38.8877 89.1894 39.1667 88.6222 39.5319C88.0472 39.899 87.5216 40.3358 87.0579 40.832L87.0368 40.8527C86.9642 40.9242 86.8662 40.9652 86.7634 40.967C86.6606 40.9688 86.561 40.9313 86.4859 40.8625C86.4107 40.7936 86.3657 40.6987 86.3604 40.5978C86.3551 40.4969 86.3899 40.398 86.4575 40.3219C86.9457 39.7506 87.5053 39.2421 88.1231 38.8084C88.745 38.3669 89.4312 38.0201 90.1585 37.7797C91.6326 37.2821 93.2159 37.1827 94.7425 37.4922C94.8974 37.5248 95.0327 37.6166 95.1187 37.7472C95.2047 37.8779 95.2343 38.0368 95.2011 38.1889C95.1678 38.341 95.0744 38.4739 94.9414 38.5584C94.8084 38.6429 94.6466 38.672 94.4917 38.6394L94.4676 38.634L94.4224 38.6149Z" fill="#0C0C0C"/>
<path d="M103.123 66.2716C103.559 66.2226 103.991 66.1374 104.412 66.0169C104.461 66.004 104.506 65.9817 104.546 65.9514C104.586 65.9211 104.619 65.8833 104.644 65.8403C104.668 65.7972 104.684 65.7498 104.69 65.7008C104.696 65.6517 104.692 65.602 104.678 65.5545C104.664 65.5071 104.64 65.4628 104.609 65.4243C104.578 65.3858 104.539 65.3538 104.494 65.3302C104.45 65.3066 104.402 65.2919 104.352 65.2869C104.302 65.2819 104.251 65.2867 104.203 65.301C101.664 66.0184 100.22 65.0678 100.16 65.0265C100.078 64.9697 99.9754 64.9475 99.8761 64.9647C99.7768 64.9819 99.6886 65.0371 99.6307 65.1183C99.5729 65.1994 99.5503 65.2998 99.5678 65.3973C99.5853 65.4948 99.6416 65.5815 99.7242 65.6383C100.749 66.2282 101.95 66.452 103.123 66.2716Z" fill="#0C0C0C"/>
<path d="M69.0132 46.6631L68.8816 46.3029C85.6578 40.3872 81.5551 24.2173 81.5122 24.0544L81.8883 23.958C81.9327 24.1232 86.1289 40.6274 69.0132 46.6631Z" fill="#0C0C0C"/>
<path opacity="0.1" d="M92.8932 57.2553C94.8301 57.0506 96.2764 55.7534 96.1235 54.3578C95.9706 52.9623 94.2765 51.997 92.3396 52.2016C90.4027 52.4063 88.9564 53.7036 89.1093 55.0991C89.2622 56.4946 90.9563 57.46 92.8932 57.2553Z" fill="#0C0C0C"/>
<path opacity="0.1" d="M113.395 51.9168C113.551 53.3103 115.245 54.2739 117.183 54.072C117.517 54.0364 117.847 53.9669 118.168 53.8647C118.277 52.2067 118.301 50.6106 118.269 49.1322C117.733 48.9946 117.176 48.9562 116.627 49.019C114.689 49.2209 113.244 50.518 113.395 51.9168Z" fill="#0C0C0C"/>
<path d="M150.855 145.336C149.971 155.532 145.673 219.145 144.823 231.705H32.4068C31.745 220.377 24.1032 170.846 21.5951 148.695C19.2008 127.558 14.5031 116.975 17.9463 110.726C23.5729 100.513 38.9483 94.6121 49.4322 93.2179C55.8344 92.3667 65.4625 91.7563 65.4625 91.7563C65.4625 91.7563 66.2777 107.955 85.7177 108.856C112.18 110.08 110.414 91.7563 110.545 91.7563C114.832 91.7563 139.322 94.4216 145.314 97.9099C161.641 107.406 152.731 123.728 150.855 145.336Z" fill="#367CFF"/>
<path d="M223.825 152.459L212.989 204.189C212.769 205.239 212.188 206.184 211.345 206.865C210.502 207.546 209.446 207.923 208.354 207.932L133.739 208.556C133.027 208.562 132.323 208.411 131.678 208.115C131.033 207.819 130.463 207.385 130.011 206.845C129.559 206.305 129.236 205.673 129.065 204.994C128.894 204.316 128.88 203.608 129.023 202.923L139.859 151.193C140.079 150.143 140.659 149.198 141.503 148.517C142.346 147.836 143.402 147.459 144.493 147.45L219.109 146.826C219.821 146.82 220.525 146.97 221.17 147.266C221.815 147.562 222.384 147.996 222.836 148.536C223.288 149.076 223.612 149.709 223.783 150.387C223.954 151.066 223.968 151.774 223.825 152.459Z" fill="#292A2E"/>
<path d="M154.248 189.203C154.287 189.884 154.075 190.557 153.65 191.097C153.225 191.636 152.616 192.007 151.935 192.141L149.638 192.638C149.679 192.651 149.716 192.674 149.746 192.705C149.776 192.735 149.797 192.773 149.809 192.814C149.815 192.862 149.804 192.91 149.778 192.951C150.33 193.104 150.82 193.421 151.181 193.86C151.541 194.298 151.753 194.836 151.787 195.399C151.79 196.054 151.568 196.692 151.157 197.208C150.746 197.724 150.17 198.089 149.521 198.244L130.125 202.473C129.133 202.692 128.12 202.802 127.103 202.802C124.84 202.801 122.61 202.26 120.606 201.225C118.603 200.19 116.885 198.692 115.603 196.859C114.242 194.921 113.706 192.538 114.107 190.217C114.509 187.896 115.816 185.82 117.752 184.432L134.252 172.585C134.615 172.324 135.037 172.153 135.482 172.088L133.963 179.33L134.368 179.239L134.454 179.223L147.107 176.692C148.517 176.386 150.448 176.891 150.697 178.466C150.83 179.069 150.752 179.699 150.475 180.253C150.198 180.807 149.738 181.253 149.171 181.518C149.178 181.525 149.194 181.533 149.194 181.548C149.194 181.564 149.186 181.571 149.186 181.587L151.374 181.112C151.775 181.025 152.19 181.026 152.589 181.116C152.989 181.205 153.364 181.38 153.686 181.629C154.009 181.878 154.271 182.194 154.454 182.554C154.638 182.914 154.737 183.31 154.746 183.713C154.746 184.356 154.519 184.979 154.105 185.476C153.691 185.974 153.114 186.315 152.472 186.443L151.53 186.649C151.522 186.68 151.53 186.711 151.514 186.734C152.201 186.739 152.861 186.994 153.366 187.451C153.871 187.907 154.185 188.532 154.248 189.203Z" fill="#E98862"/>
<g opacity="0.25">
<path d="M136.59 184.097C136.605 184.161 136.645 184.216 136.701 184.251C136.757 184.287 136.825 184.299 136.891 184.286L148.997 181.848C149.031 181.843 149.064 181.831 149.093 181.813C149.122 181.794 149.148 181.771 149.167 181.743C149.187 181.715 149.201 181.683 149.208 181.65C149.214 181.617 149.214 181.583 149.208 181.549C149.201 181.516 149.187 181.484 149.167 181.457C149.147 181.429 149.122 181.405 149.093 181.387C149.064 181.369 149.031 181.357 148.997 181.351C148.963 181.346 148.928 181.347 148.894 181.356L136.788 183.795C136.721 183.808 136.663 183.847 136.626 183.902C136.588 183.958 136.575 184.026 136.588 184.091L136.59 184.097Z" fill="#0C0C0C"/>
</g>
<g opacity="0.25">
<path d="M137.537 189.37C137.552 189.434 137.592 189.49 137.648 189.525C137.705 189.561 137.773 189.573 137.838 189.56L151.349 186.839C151.416 186.825 151.474 186.786 151.511 186.731C151.549 186.675 151.562 186.607 151.549 186.542C151.533 186.478 151.493 186.422 151.437 186.386C151.381 186.35 151.313 186.335 151.247 186.346L137.735 189.068C137.669 189.082 137.61 189.121 137.573 189.176C137.536 189.232 137.522 189.3 137.536 189.365L137.537 189.37Z" fill="#0C0C0C"/>
</g>
<g opacity="0.25">
<path d="M138.53 195.089C138.545 195.153 138.585 195.208 138.641 195.244C138.698 195.279 138.766 195.291 138.831 195.278L149.608 193.108C149.643 193.103 149.675 193.09 149.704 193.072C149.734 193.054 149.759 193.031 149.779 193.003C149.798 192.975 149.812 192.943 149.819 192.91C149.826 192.877 149.826 192.842 149.819 192.809C149.812 192.776 149.798 192.744 149.778 192.716C149.759 192.688 149.734 192.665 149.704 192.647C149.675 192.628 149.642 192.616 149.608 192.611C149.574 192.606 149.539 192.607 149.506 192.615L138.728 194.787C138.695 194.793 138.664 194.806 138.636 194.825C138.608 194.843 138.585 194.867 138.566 194.894C138.548 194.922 138.535 194.952 138.528 194.985C138.522 195.017 138.522 195.05 138.529 195.083L138.53 195.089Z" fill="#0C0C0C"/>
</g>
<path d="M128.923 210.012L23.6913 228.688C20.4075 229.04 17.0855 228.639 13.9861 227.517C10.8866 226.395 8.09396 224.583 5.8273 222.223C3.56063 219.863 1.88161 217.02 0.921986 213.915C-0.0376346 210.811 -0.251745 207.53 0.296458 204.331L15.0279 118.325C15.9686 112.833 19.0919 107.933 23.7107 104.703C28.3295 101.473 34.0656 100.178 39.6569 101.102C45.2483 102.026 50.2369 105.093 53.5255 109.63C56.814 114.166 58.133 119.8 57.1923 125.292L47.1476 184.498L124.296 174.984L128.923 210.012Z" fill="#367CFF"/>
<path d="M23.6902 229.071C23.5931 229.07 23.4995 229.034 23.4279 228.97C23.3563 228.905 23.3119 228.817 23.3033 228.722C23.2947 228.627 23.3226 228.532 23.3815 228.456C23.4404 228.38 23.5261 228.329 23.6217 228.312L128.489 209.698L123.962 175.408L47.1949 184.877C47.1347 184.885 47.0735 184.879 47.0162 184.859C46.9589 184.839 46.9073 184.807 46.8655 184.763C46.8234 184.72 46.7921 184.668 46.7741 184.611C46.7561 184.554 46.7519 184.494 46.7619 184.435L53.1469 146.596C53.1553 146.546 53.1734 146.499 53.2004 146.456C53.2274 146.413 53.2627 146.376 53.3043 146.347C53.3459 146.318 53.3929 146.297 53.4428 146.285C53.4926 146.274 53.5442 146.272 53.5947 146.281C53.6452 146.289 53.6936 146.307 53.7371 146.333C53.7806 146.36 53.8184 146.394 53.8482 146.435C53.878 146.476 53.8993 146.523 53.9108 146.572C53.9224 146.621 53.9239 146.671 53.9155 146.721L47.6153 184.054L124.248 174.601C124.35 174.589 124.453 174.616 124.534 174.678C124.616 174.74 124.669 174.831 124.682 174.931L129.309 209.958C129.322 210.056 129.297 210.154 129.238 210.234C129.179 210.313 129.091 210.367 128.992 210.384L23.7603 229.065C23.7371 229.069 23.7137 229.07 23.6902 229.071Z" fill="#0C0C0C"/>
<path d="M47.086 184.122L40.3169 185.186L40.4401 185.942L47.2092 184.878L47.086 184.122Z" fill="#0C0C0C"/>
<path d="M599.405 589H7.2975C7.15294 589 7.01431 588.944 6.91209 588.843C6.80987 588.743 6.75244 588.607 6.75244 588.465C6.75244 588.323 6.80987 588.186 6.91209 588.086C7.01431 587.986 7.15294 587.929 7.2975 587.929H599.405C599.477 587.929 599.548 587.943 599.614 587.97C599.68 587.997 599.74 588.036 599.79 588.086C599.841 588.136 599.881 588.195 599.909 588.26C599.936 588.325 599.95 588.394 599.95 588.465C599.95 588.535 599.936 588.604 599.909 588.669C599.881 588.734 599.841 588.793 599.79 588.843C599.74 588.893 599.68 588.932 599.614 588.959C599.548 588.986 599.477 589 599.405 589Z" fill="#292A2E"/>
<path d="M571.275 506.554C571.191 506.554 571.108 506.538 571.03 506.506C570.952 506.475 570.882 506.428 570.823 506.37C569.921 505.484 568.451 489.233 564.491 440.847C562.871 421.048 561.34 402.349 560.223 390.983C560.146 390.171 559.824 390.077 559.718 390.045C558.19 389.593 553.54 393.193 550.945 396.347C550.838 396.476 550.683 396.559 550.514 396.577C550.346 396.594 550.176 396.545 550.044 396.44C549.912 396.335 549.828 396.183 549.81 396.017C549.792 395.852 549.842 395.685 549.949 395.556C551.662 393.471 557.26 388.006 560.086 388.842C560.512 388.985 560.878 389.258 561.133 389.622C561.387 389.986 561.515 390.421 561.498 390.862C562.615 402.237 564.146 420.942 565.767 440.746C568.174 470.15 570.899 503.458 571.795 505.558C571.863 505.652 571.904 505.762 571.912 505.877C571.92 505.993 571.897 506.108 571.843 506.21C571.789 506.313 571.708 506.399 571.608 506.459C571.507 506.52 571.392 506.552 571.275 506.552V506.554Z" fill="#494949"/>
<path d="M558.579 411.837C569.2 403.474 572.721 390.459 566.442 382.765C560.163 375.072 546.463 375.614 535.841 383.976C525.22 392.338 521.7 405.354 527.978 413.048C534.257 420.741 547.958 420.199 558.579 411.837Z" fill="#0CBC8B"/>
<path opacity="0.2" d="M558.579 411.837C569.2 403.474 572.721 390.459 566.442 382.765C560.163 375.072 546.463 375.614 535.841 383.976C525.22 392.338 521.7 405.354 527.978 413.048C534.257 420.741 547.958 420.199 558.579 411.837Z" fill="white"/>
<path d="M530.956 415.005C530.895 415.005 530.835 414.988 530.784 414.956C530.733 414.924 530.692 414.879 530.666 414.825C530.64 414.771 530.63 414.71 530.638 414.651C530.646 414.592 530.671 414.536 530.71 414.49L560.98 378.638C561.034 378.573 561.112 378.533 561.197 378.525C561.281 378.518 561.366 378.543 561.431 378.596C561.496 378.65 561.538 378.726 561.545 378.809C561.553 378.892 561.527 378.975 561.473 379.039L531.201 414.892C531.171 414.927 531.134 414.956 531.091 414.975C531.049 414.995 531.003 415.005 530.956 415.005Z" fill="white"/>
<path d="M577.877 498.868C577.806 498.868 577.734 498.856 577.667 498.833C577.588 498.806 577.514 498.764 577.451 498.709C577.389 498.654 577.337 498.588 577.301 498.513C577.264 498.439 577.243 498.358 577.238 498.276C577.233 498.193 577.245 498.111 577.273 498.033L588.641 465.916C588.976 464.972 589.546 464.125 590.3 463.454C591.054 462.783 591.967 462.308 592.957 462.073C593.946 461.839 594.979 461.852 595.962 462.112C596.944 462.371 597.845 462.869 598.581 463.559L604.592 469.2C604.715 469.315 604.786 469.473 604.79 469.64C604.794 469.807 604.73 469.968 604.613 470.089C604.496 470.209 604.334 470.279 604.165 470.283C603.995 470.287 603.83 470.224 603.708 470.109L597.696 464.469C597.115 463.924 596.404 463.531 595.629 463.326C594.853 463.121 594.037 463.11 593.256 463.296C592.475 463.481 591.754 463.855 591.159 464.385C590.564 464.915 590.114 465.583 589.85 466.329L578.481 498.45C578.437 498.572 578.355 498.678 578.247 498.753C578.139 498.828 578.01 498.868 577.877 498.868Z" fill="#494949"/>
<path d="M621.389 486.983C629.261 480.863 628.793 467.404 620.344 456.921C611.896 446.437 598.666 442.9 590.794 449.019C582.923 455.139 583.391 468.598 591.839 479.081C600.288 489.565 613.518 493.102 621.389 486.983Z" fill="#0CBC8B"/>
<path d="M566.109 504.506C565.965 504.506 565.826 504.459 565.713 504.371C565.6 504.284 565.52 504.161 565.486 504.024L546.409 425.663C546.279 425.128 546.002 424.639 545.607 424.25C545.213 423.86 544.716 423.585 544.173 423.455C543.629 423.325 543.06 423.344 542.527 423.511C541.994 423.679 541.519 423.987 541.152 424.402L535.271 431.079C535.159 431.205 535.002 431.282 534.833 431.294C534.663 431.306 534.496 431.252 534.368 431.143C534.239 431.034 534.16 430.879 534.148 430.713C534.136 430.546 534.191 430.382 534.303 430.256L540.185 423.58C540.705 422.99 541.381 422.552 542.138 422.314C542.895 422.077 543.704 422.049 544.476 422.234C545.248 422.419 545.954 422.81 546.514 423.363C547.075 423.917 547.47 424.611 547.654 425.37L566.731 503.732C566.751 503.812 566.755 503.895 566.741 503.977C566.728 504.058 566.699 504.137 566.655 504.207C566.611 504.277 566.553 504.339 566.485 504.387C566.417 504.436 566.34 504.47 566.258 504.49C566.209 504.501 566.159 504.506 566.109 504.506Z" fill="#494949"/>
<path d="M559.072 448.49C561.392 435.315 555.253 423.273 545.361 421.593C535.469 419.913 525.569 429.231 523.25 442.405C520.93 455.58 527.069 467.622 536.961 469.302C546.853 470.982 556.753 461.664 559.072 448.49Z" fill="#0CBC8B"/>
<path d="M571.276 506.555C571.25 506.554 571.224 506.553 571.198 506.55C571.03 506.53 570.876 506.444 570.772 506.313C570.667 506.182 570.62 506.015 570.64 505.849L582.826 408.682C582.959 407.624 583.4 406.625 584.097 405.807C584.793 404.989 585.716 404.386 586.753 404.07C587.79 403.755 588.898 403.74 589.943 404.028C590.989 404.316 591.927 404.895 592.646 405.694L606.573 421.187C606.631 421.249 606.676 421.321 606.704 421.4C606.733 421.478 606.746 421.562 606.742 421.645C606.737 421.729 606.716 421.811 606.679 421.886C606.642 421.962 606.59 422.029 606.526 422.084C606.462 422.14 606.388 422.182 606.307 422.209C606.226 422.235 606.141 422.246 606.056 422.24C605.971 422.234 605.888 422.211 605.812 422.173C605.736 422.136 605.669 422.083 605.614 422.019L591.687 406.527C591.131 405.911 590.405 405.465 589.598 405.243C588.79 405.022 587.935 405.033 587.134 405.277C586.333 405.521 585.62 405.986 585.082 406.617C584.543 407.248 584.201 408.019 584.097 408.836L571.913 506.002C571.894 506.155 571.818 506.295 571.701 506.397C571.584 506.499 571.432 506.555 571.276 506.555Z" fill="#494949"/>
<path d="M620.855 429.797C625.714 421.169 619.997 408.928 608.085 402.457C596.174 395.985 582.578 397.733 577.719 406.361C572.86 414.989 578.577 427.23 590.489 433.702C602.401 440.173 615.996 438.425 620.855 429.797Z" fill="#0CBC8B"/>
<path opacity="0.2" d="M621.389 486.983C629.261 480.863 628.793 467.404 620.344 456.921C611.896 446.437 598.666 442.9 590.794 449.019C582.923 455.139 583.391 468.598 591.839 479.081C600.288 489.565 613.518 493.102 621.389 486.983Z" fill="white"/>
<path opacity="0.5" d="M559.072 448.49C561.392 435.315 555.253 423.273 545.361 421.593C535.469 419.913 525.569 429.231 523.25 442.405C520.93 455.58 527.069 467.622 536.961 469.302C546.853 470.982 556.753 461.664 559.072 448.49Z" fill="white"/>
<path opacity="0.5" d="M620.855 429.797C625.714 421.169 619.997 408.928 608.085 402.457C596.174 395.985 582.578 397.733 577.719 406.361C572.86 414.989 578.577 427.23 590.489 433.702C602.401 440.173 615.996 438.425 620.855 429.797Z" fill="white"/>
<path d="M586.86 589H555.69L550.525 491.05H592.025L586.86 589Z" fill="#292A2E"/>
<path opacity="0.3" d="M586.86 589H555.69L550.525 491.05H592.025L586.86 589Z" fill="white"/>
<path d="M621.39 487.292C621.341 487.292 621.293 487.282 621.249 487.261C621.205 487.24 621.167 487.209 621.137 487.171L590.541 449.207C590.489 449.142 590.465 449.058 590.475 448.976C590.484 448.893 590.527 448.817 590.594 448.766C590.661 448.714 590.745 448.69 590.83 448.7C590.914 448.71 590.991 448.752 591.044 448.817L621.639 486.781C621.676 486.827 621.7 486.883 621.707 486.941C621.713 487 621.703 487.06 621.677 487.113C621.651 487.166 621.61 487.211 621.558 487.242C621.507 487.274 621.448 487.29 621.388 487.29L621.39 487.292Z" fill="white"/>
<path d="M618.82 432.838C618.752 432.838 618.686 432.817 618.632 432.777L579.478 404.699C579.443 404.675 579.412 404.644 579.389 404.609C579.366 404.573 579.35 404.534 579.342 404.492C579.335 404.451 579.336 404.408 579.346 404.367C579.356 404.326 579.374 404.287 579.399 404.253C579.425 404.219 579.457 404.19 579.494 404.168C579.531 404.147 579.572 404.133 579.614 404.127C579.657 404.121 579.7 404.124 579.742 404.135C579.783 404.146 579.822 404.165 579.856 404.192L619.007 432.269C619.061 432.308 619.102 432.364 619.123 432.427C619.144 432.49 619.143 432.558 619.122 432.621C619.101 432.684 619.061 432.739 619.006 432.778C618.951 432.817 618.885 432.838 618.818 432.838H618.82Z" fill="white"/>
<path d="M535.37 468.893C535.342 468.893 535.314 468.889 535.287 468.882C535.205 468.861 535.136 468.808 535.093 468.737C535.051 468.665 535.039 468.58 535.06 468.5L547.524 422.636C547.548 422.557 547.601 422.49 547.674 422.45C547.747 422.409 547.833 422.399 547.914 422.42C547.995 422.441 548.064 422.492 548.107 422.563C548.15 422.634 548.162 422.718 548.143 422.798L535.679 468.658C535.661 468.725 535.621 468.785 535.565 468.827C535.509 468.87 535.441 468.893 535.37 468.893Z" fill="white"/>
</g>
<defs>
<clipPath id="clip0_8_940">
<rect width="627" height="589" fill="white"/>
</clipPath>
</defs>
</svg>
