<svg width="650" height="650" viewBox="0 0 650 650" fill="none" xmlns="http://www.w3.org/2000/svg">
<path d="M367.455 500.772C367.187 500.844 366.959 501.018 366.822 501.255C366.685 501.493 366.649 501.773 366.723 502.036C366.797 502.299 366.975 502.522 367.216 502.657C367.458 502.791 367.744 502.826 368.012 502.754C376.817 500.863 385.071 497.043 392.157 491.581C419.089 472.071 417.695 444.395 433.025 419.076C445.289 399.771 456.055 401.992 455.218 399.498C455.187 399.399 455.136 399.308 455.067 399.23C454.999 399.151 454.914 399.088 454.819 399.043C454.725 398.998 454.621 398.973 454.516 398.969C454.411 398.965 454.306 398.982 454.208 399.019C405.989 416.411 433.234 478.426 367.455 500.772ZM562.597 440.021C563.956 438.62 565.315 437.151 566.639 435.682C576.882 423.484 584.059 404.589 583.362 390.682C583.345 390.532 583.285 390.39 583.19 390.271C583.096 390.152 582.969 390.061 582.825 390.008C582.681 389.955 582.525 389.942 582.374 389.971C582.223 389.999 582.082 390.068 581.969 390.17C580.923 391.161 583.85 396.628 576.499 413.848C569.531 430.181 563.434 434.349 556.57 441.969C550.421 448.931 545.747 457.025 542.822 465.777C539.897 474.53 538.779 483.766 539.533 492.948C539.573 493.141 539.68 493.314 539.835 493.439C539.991 493.564 540.185 493.632 540.386 493.632C540.587 493.632 540.782 493.564 540.938 493.439C541.093 493.314 541.2 493.141 541.24 492.948C541.001 483.172 542.769 473.449 546.438 464.357C550.107 455.265 555.602 446.989 562.597 440.021ZM256.697 292.483C260.181 290.126 259.937 282.916 256.697 280.251C255.78 279.526 254.712 279.008 253.568 278.733C252.425 278.459 251.233 278.435 250.079 278.663C248.925 278.891 247.836 279.366 246.89 280.054C245.944 280.742 245.165 281.626 244.607 282.643C243.96 284.233 243.844 285.982 244.274 287.641C244.705 289.299 245.66 290.782 247.003 291.875C248.346 292.968 250.007 293.615 251.749 293.725C253.49 293.834 255.222 293.4 256.697 292.483ZM247.115 284.659C248.161 280.764 255.024 280.217 256.069 284.112C256.766 286.777 256.453 288.657 255.059 289.682C254.221 290.192 253.269 290.494 252.285 290.559C251.301 290.625 250.315 290.452 249.415 290.057C248.472 289.538 247.734 288.725 247.317 287.747C246.9 286.768 246.829 285.681 247.115 284.659ZM375.747 229.272C375.613 229.263 375.479 229.281 375.352 229.325C375.226 229.368 375.11 229.437 375.012 229.527C374.914 229.617 374.835 229.726 374.782 229.846C374.729 229.967 374.701 230.097 374.702 230.229C374.702 233.646 368.814 237.063 367.734 237.404C367.526 237.454 367.347 237.583 367.235 237.762C367.124 237.942 367.09 238.157 367.141 238.361C367.192 238.565 367.323 238.741 367.506 238.85C367.689 238.959 367.909 238.992 368.117 238.942C377.28 237.097 378.674 229.204 375.747 229.272ZM363.518 224.045C363.1 223.805 361.253 222.473 360.591 221.96C360.591 221.516 362.229 215.81 362.542 214.717C362.856 213.623 361.427 213.35 361.044 214.238C359.587 217.008 358.419 219.916 357.56 222.917C357.839 223.908 362.682 225.206 363.03 225.206C363.175 225.226 363.323 225.197 363.45 225.126C363.577 225.054 363.676 224.943 363.732 224.81C363.787 224.677 363.797 224.53 363.758 224.392C363.719 224.253 363.635 224.131 363.518 224.045ZM352.021 205.731C351.97 205.435 351.815 205.167 351.582 204.973C351.349 204.78 351.054 204.673 350.749 204.673C350.444 204.673 350.148 204.78 349.915 204.973C349.682 205.167 349.527 205.435 349.477 205.731C349.344 208.086 349.344 210.448 349.477 212.803C349.695 213.154 350.027 213.422 350.418 213.567C350.81 213.712 351.24 213.725 351.639 213.603C352.039 213.482 352.386 213.233 352.626 212.896C352.865 212.559 352.983 212.154 352.961 211.744C352.479 209.769 352.164 207.757 352.021 205.731ZM376.374 211.71C375.927 209.751 375.613 207.765 375.433 205.765C375.433 205.429 375.298 205.108 375.056 204.871C374.814 204.634 374.486 204.5 374.144 204.5C373.802 204.5 373.475 204.634 373.233 204.871C372.991 205.108 372.855 205.429 372.855 205.765C372.729 208.041 372.729 210.322 372.855 212.598C372.875 212.863 372.953 213.12 373.085 213.351C373.217 213.583 373.399 213.783 373.619 213.938C373.839 214.093 374.09 214.198 374.356 214.247C374.622 214.296 374.895 214.287 375.157 214.221C375.419 214.155 375.663 214.033 375.872 213.865C376.08 213.696 376.249 213.484 376.365 213.245C376.481 213.005 376.542 212.744 376.543 212.478C376.545 212.213 376.487 211.951 376.374 211.71Z" fill="#140E11"/>
<path d="M649.036 165.173C648.793 143.886 641.511 135.481 619.039 136.13C612.628 136.13 498.316 137.258 490.128 137.531C484.639 137.532 479.208 138.637 474.171 140.777C471.28 141.905 456.159 149.319 454.486 153.248C452.675 156.05 454.8 235.867 454.486 252.336C452.066 250.984 449.577 249.752 447.03 248.646C446.57 246.401 445.593 244.29 444.174 242.472C442.756 240.654 440.932 239.178 438.843 238.156C435.638 236.926 431.526 238.395 429.157 236.174C426.788 233.953 431.039 232.757 431.492 229.341C431.478 226.971 431.197 224.611 430.655 222.302C428.555 209.916 425.622 197.68 421.876 185.674C418.74 175.799 415.465 167.428 406.441 162.064C406.441 145.458 404.734 48.1473 403.793 42.9879C402.866 37.8959 400.097 33.3029 395.994 30.0517C391.892 26.8006 386.732 25.1095 381.46 25.2888C381.112 25.2888 141.339 25.2888 141.06 25.5621C131.479 31.1657 128.901 43.6712 128.274 52.8966C128.064 57.5093 132.176 150.652 133.813 180.241C116.846 180.583 31.1378 182.838 26.2253 185.4C15.1111 188.066 2.81239 195.651 0.408391 207.986C-1.08976 215.913 1.94138 368.2 2.95176 375.409C3.67534 383.196 7.22331 390.471 12.951 395.91C19.1875 401.275 27.6886 402.265 35.1793 402.539L194.157 399.6C178.618 434.11 160.71 483.039 148.864 513.483C148.809 513.57 148.779 513.67 148.779 513.773C148.779 513.876 148.809 513.976 148.864 514.063C152.07 517.152 155.57 519.932 159.317 522.366C153.637 541.398 154.265 542.457 153.01 543.995C142.245 556.944 129.249 564.496 116.428 565.726C110.47 566.375 104.582 567.4 102.491 573.072C100.784 578.231 105.314 581.682 110.609 583.117C114.093 584.04 137.855 589.199 141.374 589.609C144.492 590.122 147.691 589.423 150.293 587.661C152.801 585.851 161.059 576.284 164.229 573.413C158.48 600.748 154.474 592.035 168.166 597.878C168.357 597.978 168.569 598.035 168.785 598.045C169.002 598.055 169.218 598.018 169.418 597.936C169.618 597.855 169.797 597.73 169.942 597.572C170.087 597.415 170.194 597.227 170.256 597.024C172.695 590.19 189.21 551.136 195.934 540.988C197.572 582.263 197.293 580.11 197.885 580.281C200.219 580.862 202.763 581.409 205.376 581.921C205.376 587.661 205.55 593.538 206.038 599.962C206.038 600.167 205.759 600.509 205.48 601.055C196.84 619.643 187.154 627.228 176.632 631.807C171.964 633.857 165.518 636.659 165.692 642.98C165.692 648.447 171.406 650.189 176.946 649.984C185.273 649.711 196.039 648.617 200.916 648.378C214.852 647.558 215.201 644.961 221.124 633.242C222.483 630.542 224.085 627.331 224.991 625.759C226.629 644.961 224.469 647.797 227.151 647.661C234.433 647.285 237.603 649.232 237.603 646.67C237.882 639.631 241.087 611.955 242.76 605.156C242.76 604.37 242.202 603.925 241.366 603.755C242.411 597.399 244.85 584.894 245.164 582.605C246.906 582.365 248.648 582.092 250.007 581.785C250.39 581.785 250.007 583.595 255.895 559.78C298.191 576.147 343.31 580.076 383.795 570.748C385.223 576.181 395.571 613.219 401.215 629.449C403.138 634.751 405.7 639.81 408.845 644.517C409.646 645.269 411.005 646.601 412.329 646.601C413.653 646.601 415.116 644.791 415.465 642.945C415.813 641.1 410.343 587.217 408.497 567.776C416.775 565.765 424.802 562.866 432.432 559.131L443.721 595.896C444.051 596.444 444.548 596.876 445.143 597.132C445.737 597.388 446.398 597.454 447.033 597.322C447.668 597.19 448.244 596.866 448.681 596.396C449.118 595.925 449.394 595.332 449.469 594.7L448.389 550.657C453.664 547.286 458.715 543.588 463.51 539.587C465.688 541.651 468.136 543.421 470.792 544.849C471.065 544.997 471.386 545.033 471.686 544.95C471.986 544.866 472.241 544.671 472.394 544.405C475.292 540.108 478.543 536.051 482.115 532.275C481.418 536.683 480.059 545.703 479.885 548.505C479.88 548.686 479.913 548.865 479.982 549.033C480.05 549.201 480.152 549.354 480.283 549.482C480.413 549.61 480.569 549.71 480.74 549.777C480.911 549.844 481.095 549.876 481.279 549.872C484.979 549.758 488.673 550.231 492.219 551.272C480.861 556.637 475.669 561.181 476.366 564.94C477.727 571.651 479.638 578.244 482.08 584.655C483.962 589.985 485.913 595.52 491.766 597.844C518.593 608.982 558.451 600.85 585.383 589.746C608.238 580.965 611.583 566.751 609.562 546.66C609.144 542.833 604.615 542.389 595.103 542.628L618.272 513.893C625.24 505.726 619.178 506 616.983 489.975C619.082 493.024 621.603 495.773 624.474 498.141C624.644 498.272 624.841 498.367 625.051 498.42C625.261 498.473 625.479 498.483 625.693 498.449C626.634 498.278 625.902 498.756 634.543 483.517C634.707 483.239 634.769 482.915 634.718 482.597C634.667 482.28 634.507 481.99 634.264 481.775C630.466 478.699 621.303 471.524 621.303 471.524C626.027 470.428 630.681 469.059 635.24 467.424C636.326 467.149 637.311 466.575 638.076 465.77C638.841 464.965 639.356 463.962 639.56 462.88C640.013 460.214 640.048 406.536 640.117 399.224C640.117 398.029 638.166 397.687 637.957 398.985C633.881 426.081 615.171 448.632 591.271 455.363C592.037 452.322 593.988 445.727 592.908 443.916C588.967 441.484 584.775 439.468 580.4 437.903C584.756 435.477 594.824 429.156 595.556 427.208C596.009 426.081 593.779 373.359 593.675 367.585C593.657 367.347 593.564 367.12 593.407 366.938C593.25 366.755 593.039 366.626 592.802 366.57C592.566 366.513 592.318 366.531 592.092 366.621C591.867 366.711 591.677 366.869 591.549 367.072C584.803 380.135 574.825 391.331 562.527 399.634C561.099 400.591 550.821 405.956 550.019 406.673C547.441 409.099 550.647 412.072 552.005 413.951C552.981 415.249 556.326 419.657 556.988 420.58C544.724 422.049 541.483 417.914 540.856 420.58C539.651 424.06 538.025 427.387 536.013 430.488C536.732 433.483 537.651 436.428 538.766 439.304C536.724 439.633 534.641 439.633 532.599 439.304C532.235 439.227 531.855 439.286 531.533 439.469C531.211 439.652 530.97 439.947 530.857 440.294C529.882 443.404 529.115 446.001 528.418 448.427C524.195 441.402 519.541 434.636 514.482 428.165C512.008 409.646 503.089 388.017 484.24 385.147C498.42 379.339 507.723 364.407 509.953 349.271C516.642 349.271 613.29 348.997 617.192 349.271C638.34 349.852 647.782 341.925 649.768 320.775C650.569 312.335 649.036 166.711 649.036 165.173ZM167.922 571.978C168.01 571.616 167.955 571.235 167.767 570.912C167.58 570.588 167.274 570.347 166.912 570.236C164.09 569.211 161.93 571.637 160.362 573.379C156.393 578.117 152.035 582.528 147.331 586.568C144.718 587.798 114.302 581.614 110.505 580.452C108.461 579.998 106.682 578.77 105.557 577.035C105.117 575.774 105.165 574.399 105.692 573.17C106.219 571.942 107.188 570.946 108.414 570.372C111.097 568.767 113.083 568.903 120.609 567.536C128.134 566.17 135.59 564.837 148.69 552.742C150.515 551.027 152.215 549.189 153.777 547.241C155.952 551.983 159.614 555.921 164.229 558.482C170.412 561.174 177.317 561.834 183.914 560.361C180.43 567.195 170.814 588.55 168.41 595.076C166.494 594.324 164.543 593.641 162.626 593.094C164.784 586.156 166.552 579.107 167.922 571.978ZM473.893 384.874C468.992 385.08 464.125 385.767 459.364 386.924C443.759 388.654 428.069 389.544 412.364 389.589C410.065 375.922 410.761 378.45 410.169 374.658C409.925 373.018 409.577 370.762 410.796 370.045C427.485 362.733 444.836 356.104 461.454 348.963C464.939 351.457 465.217 351.15 465.531 350.945C465.68 350.787 465.763 350.579 465.763 350.364C465.763 350.149 465.68 349.941 465.531 349.783C464.171 348.436 462.741 347.158 461.245 345.956C447.87 334.226 438.554 318.701 434.592 301.538C434.546 301.334 434.419 301.156 434.24 301.044C434.06 300.932 433.842 300.895 433.634 300.94C433.426 300.985 433.245 301.11 433.131 301.286C433.017 301.462 432.978 301.676 433.025 301.88C435.977 319.728 445.39 335.934 459.538 347.528L411.493 367.004C410.104 367.404 408.883 368.23 408.009 369.362C405.604 368.72 403.431 367.43 401.738 365.637C392.679 358.496 389.056 363.382 377.349 372.471C376.217 373.308 375.147 374.221 374.144 375.204C367.956 369.806 361.789 364.385 355.643 358.94C354.076 356.685 339.791 308.371 333.938 288.964C338.462 278.205 345.762 268.786 355.121 261.63C356.203 264.87 357.567 268.014 359.197 271.026C361.81 273.486 365.19 272.29 368.465 271.504C367.562 273.34 367.042 275.335 366.934 277.37C366.827 279.406 367.134 281.442 367.838 283.36C370.304 288.784 374.157 293.492 379.022 297.028C390.937 307.278 390.345 307.005 391.042 307.005C391.363 306.989 391.668 306.859 391.899 306.639C392.13 306.419 392.271 306.124 392.296 305.809C393.48 293.884 397.383 290.604 408.392 286.811C414.413 284.884 419.508 280.864 422.717 275.508C425.925 270.152 427.026 263.831 425.812 257.734C433.095 257.788 440.35 256.869 447.379 255.001C447.711 254.927 448 254.728 448.183 254.446C448.365 254.165 448.427 253.824 448.354 253.498C448.354 252.917 448.111 252.233 447.936 251.516C498.769 275.741 529.742 351.218 488.735 379.27C484.275 382.199 479.204 384.114 473.893 384.874ZM485.599 388.769C494.553 390.648 502.044 398.029 506.922 411.012C530.195 472.686 475.948 547.411 408.601 564.769C408.183 560.635 405.884 536.649 405.431 534.872C405.097 533.304 404.177 531.914 402.853 530.977C398.567 528.653 391.216 531.216 387.314 533.471C383.594 535.893 380.269 538.854 377.454 542.252C377.454 543.345 382.331 563.949 383.377 568.151C341.031 576.836 297.016 573.129 256.801 557.491C263.002 532.207 271.225 497.594 273.524 486.866C297.494 494.178 331.185 493.494 331.534 493.46C331.645 493.431 331.744 493.367 331.814 493.277C331.884 493.188 331.923 493.078 331.923 492.965C331.923 492.852 331.884 492.742 331.814 492.652C331.744 492.562 331.645 492.498 331.534 492.469C312.197 486.148 295.509 469.85 284.569 446.547C267.741 411.73 232.83 412.14 219.242 429.463C199.592 454.474 196.422 527.252 196.108 536.033C194.889 538.22 187.886 551.648 185.238 557.115C164.334 562.001 158.376 550.282 155.832 545.259C155.414 544.405 155.623 546.66 162.104 524.211C165.588 525.886 190.36 534.462 190.394 531.933C190.673 502.89 197.85 433.803 217.291 417.914C231.228 406.707 261.365 408.655 274.709 418.359C283.192 425.952 290.131 435.053 295.16 445.181C306.344 468.722 325.611 486.182 347.003 490.556C374.423 488.198 406.232 445.351 415.326 417.949C432.119 397.072 459.817 385.113 485.599 388.769ZM540.125 527.731C540.171 527.935 540.298 528.112 540.477 528.224C540.657 528.336 540.875 528.374 541.083 528.329C541.291 528.283 541.472 528.159 541.586 527.983C541.7 527.806 541.739 527.593 541.693 527.389C539.498 516.387 533.296 506.888 529.394 496.638C522.635 479.109 527.547 460.283 533.261 442.481C535.81 442.948 538.444 442.613 540.787 441.525C542.703 440.055 541.17 437.561 539.01 431.274C540.786 428.64 542.181 425.777 543.156 422.766C548.601 424.03 554.264 424.1 559.74 422.971C559.953 422.918 560.149 422.816 560.314 422.674C560.479 422.533 560.608 422.354 560.689 422.155C560.771 421.955 560.803 421.739 560.783 421.525C560.764 421.31 560.693 421.104 560.576 420.921C558.242 417.914 552.075 409.68 551.761 409.065C551.448 408.45 551.761 408.518 552.772 408.074C569.425 400.642 583.081 387.983 591.584 372.095C592.002 383.268 593.361 424.851 592.978 426.525C587.565 430.367 581.857 433.794 575.906 436.775C575.646 436.916 575.435 437.129 575.299 437.388C575.163 437.646 575.108 437.939 575.141 438.228C575.175 438.517 575.295 438.79 575.487 439.012C575.679 439.234 575.934 439.395 576.22 439.474C581.149 441.128 585.927 443.185 590.504 445.625C591.131 446.616 588.936 454.44 588.553 456.456L585.069 457.139C584.722 457.228 584.424 457.445 584.236 457.744C584.048 458.043 583.984 458.402 584.059 458.745C584.965 464.793 587.02 479.69 587.02 479.69C577.021 470.567 577.091 465.511 574.93 465.306C574.716 465.279 574.499 465.306 574.298 465.384C574.097 465.461 573.919 465.587 573.781 465.75C557.398 484.392 548.201 508.078 547.79 532.685C547.829 532.87 547.931 533.035 548.081 533.155C548.23 533.274 548.416 533.339 548.608 533.339C548.801 533.339 548.987 533.274 549.136 533.155C549.285 533.035 549.388 532.87 549.427 532.685C550.739 509.402 559.546 487.128 574.582 469.064C578.047 474.918 582.596 480.087 587.996 484.303C588.226 484.503 588.514 484.628 588.821 484.658C589.127 484.688 589.435 484.623 589.701 484.471C589.967 484.32 590.178 484.09 590.304 483.815C590.429 483.539 590.463 483.232 590.4 482.936C590.4 482.936 587.891 466.296 586.916 459.531C610.642 455.397 631.024 435.613 637.887 410.397C637.887 424.44 637.4 459.258 637.4 459.599C637.4 461.82 637.4 463.939 635.379 464.93C629.665 466.898 623.85 468.575 617.959 469.952C617.717 470.015 617.498 470.14 617.322 470.314C617.147 470.488 617.023 470.705 616.962 470.942C616.902 471.18 616.907 471.429 616.978 471.663C617.049 471.898 617.183 472.109 617.366 472.276C619.004 473.574 628.411 481.125 631.512 483.551C631.512 483.551 627.261 491.512 625.101 495.442C621.568 492.236 618.643 488.442 616.46 484.235C616.319 483.996 616.102 483.809 615.841 483.702C615.581 483.596 615.293 483.576 615.02 483.646C614.747 483.716 614.505 483.871 614.331 484.089C614.157 484.306 614.061 484.573 614.057 484.85C615.032 507.674 622.488 504.701 616.321 512.184C595.068 538.391 591.34 546.865 568.45 553.493C573.049 532.993 588.797 524.69 595.103 509.895C598.587 501.797 597.821 492.811 600.573 484.679C602.489 479.035 605.622 473.862 609.758 469.511C613.894 465.16 618.937 461.733 624.544 459.463C624.747 459.395 624.914 459.25 625.009 459.061C625.104 458.872 625.118 458.654 625.049 458.455C624.979 458.255 624.832 458.091 624.639 457.998C624.447 457.905 624.224 457.891 624.021 457.959C616.719 460.486 610.277 464.951 605.411 470.857C600.545 476.763 597.447 483.879 596.462 491.41C594.964 501.9 595.277 507.059 588.588 516.25C581.202 526.33 569.112 535.248 565.21 554.348C559.151 555.827 552.95 556.674 546.71 556.876C545.978 550.76 542.145 547.172 539.428 547.036C536.919 542.73 510.475 503.266 500.72 494.622C511.508 475.583 516.468 453.896 515.005 432.163C519.185 438.21 526.328 449.554 527.582 451.775C515.423 497.765 535.282 504.667 540.125 527.731ZM485.181 529.234C485.18 528.993 485.109 528.757 484.975 528.555C484.842 528.352 484.653 528.191 484.43 528.091C484.206 527.99 483.958 527.954 483.715 527.987C483.471 528.02 483.243 528.121 483.056 528.277C478.601 532.614 474.554 537.337 470.966 542.389C468.914 541.215 466.988 539.841 465.217 538.289C473.638 531.112 481.274 523.097 488.003 514.371C525.004 557.901 523.227 556.637 524.272 555.817C524.354 555.762 524.424 555.692 524.477 555.61C524.531 555.528 524.567 555.437 524.583 555.341C524.6 555.245 524.596 555.147 524.572 555.053C524.549 554.958 524.506 554.87 524.446 554.792C522.008 551.17 497.166 520.624 489.606 512.047C493.196 507.182 496.477 502.104 499.431 496.843C513.367 510.202 535.003 545.361 537.024 548.676C535.1 551.389 534.201 554.676 534.48 557.969C530.079 559.175 525.454 559.374 520.962 558.55C515.632 557.525 495.703 547.924 482.638 547.548C483.474 543.824 484.798 532.446 485.285 529.234H485.181ZM393.968 533.573H394.56C397.278 532.958 401.529 532.036 402.539 534.735C403.062 536.58 413.583 638.504 413.583 641.647C413.639 642.142 413.584 642.644 413.422 643.116C413.259 643.588 412.993 644.02 412.643 644.38C403.584 640.964 381.286 550.316 380.415 542.628C383.927 538.368 388.641 535.219 393.968 533.573ZM22.9851 372.232C22.9851 364.407 17.6893 209.284 18.212 203.68C19.1178 193.122 22.9851 188.373 31.5211 187.28C40.5448 185.571 124.789 183.214 133.987 182.975C134.196 186.391 134.371 188.783 134.44 189.227C134.827 191.915 136.134 194.395 138.147 196.258C140.161 198.12 142.761 199.256 145.52 199.478C145.52 199.136 143.22 199.478 215.201 199.717C215.201 210.377 215.863 260.468 215.898 262.825C195.411 263.577 174.298 264.397 170.256 264.773C169.699 264.773 169.211 265.764 169.42 266.242C175.483 280.935 202.484 340.592 210.044 355.899C210.75 357.639 211.961 359.136 213.529 360.204C214.504 361.64 215.654 363.245 217.013 364.851C205.968 373.496 201.996 383.063 195.586 397.072C166.076 397.687 46.4677 400.113 43.785 400.01C36.3291 399.703 31.0681 397.584 27.7931 393.553C22.8109 387.744 23.02 379.817 22.9851 372.232ZM426.056 235.764C426.788 238.361 429.54 239.762 433.791 239.864C441.108 239.557 444.243 245.741 445.567 252.848C438.445 254.213 431.22 255.002 423.966 255.206C423.756 255.208 423.549 255.258 423.362 255.352C423.175 255.445 423.013 255.58 422.888 255.746C422.763 255.911 422.679 256.103 422.643 256.306C422.606 256.508 422.618 256.717 422.677 256.914C423.789 260.815 423.8 264.938 422.708 268.844C421.615 272.75 419.461 276.291 416.475 279.089C407.103 287.939 392.087 283.053 389.892 303.451C386.756 300.786 375.154 291.117 372.785 288.281C368.709 283.668 367.071 276.014 371.252 271.197C380.205 269.762 389.253 268.974 398.323 268.839C398.527 268.839 398.722 268.76 398.865 268.619C399.009 268.478 399.09 268.287 399.09 268.087C399.09 267.888 399.009 267.697 398.865 267.556C398.722 267.415 398.527 267.336 398.323 267.336C387.888 266.61 377.4 267.346 367.176 269.522C363.274 270.582 361.357 271.333 359.615 267.746C358.744 265.935 353.553 250.422 352.647 247.552C351.045 243.828 352.02 244.955 354.947 243.179C357.814 245.555 361.033 247.491 364.493 248.919C364.493 249.329 366.305 254.762 366.583 255.753C366.702 256.574 367.12 257.324 367.761 257.865C368.402 258.406 369.222 258.699 370.068 258.691C378.192 259.423 386.378 258.256 393.954 255.287C401.53 252.317 408.281 247.629 413.653 241.607C413.76 241.464 413.809 241.287 413.79 241.11C413.771 240.934 413.687 240.77 413.553 240.651C413.418 240.533 413.244 240.467 413.063 240.466C412.882 240.466 412.708 240.532 412.573 240.65C407.177 245.999 400.694 250.175 393.545 252.906C386.396 255.637 378.741 256.863 371.078 256.504C368.639 256.333 368.953 256.846 366.897 249.671C376.304 252.267 378.673 248.748 375.328 251.994C375.219 252.122 375.159 252.283 375.158 252.449C375.157 252.616 375.215 252.778 375.322 252.907C375.429 253.036 375.578 253.125 375.745 253.158C375.911 253.191 376.084 253.166 376.234 253.088C388.907 243.795 398.153 230.71 402.574 215.81C402.606 215.714 402.618 215.612 402.608 215.511C402.599 215.41 402.569 215.312 402.521 215.222C402.472 215.133 402.405 215.054 402.324 214.991C402.244 214.927 402.151 214.881 402.051 214.853C400.24 214.238 401.459 217.758 392.958 231.391C389.474 217.724 391.808 203.27 388.045 189.535C387.994 189.34 387.867 189.173 387.69 189.07C387.514 188.968 387.303 188.938 387.105 188.988C386.906 189.038 386.736 189.163 386.631 189.336C386.526 189.509 386.496 189.716 386.547 189.911C387.157 192.817 387.553 195.764 387.732 198.726C380.311 191.517 364.632 180.002 352.264 182.633C349.599 182.713 347.074 183.82 345.235 185.713C343.396 187.606 342.392 190.133 342.439 192.747C339.443 188.783 341.533 182.735 344.251 179.387C351.428 170.196 364.179 165.72 376.896 162.303C388.15 159.364 403.201 159.774 411.737 169.752C415.44 174.731 418.115 180.372 419.611 186.357C424.061 199.846 427.165 213.726 428.879 227.803C429.011 228.371 428.984 228.963 428.8 229.517C428.616 230.071 428.282 230.565 427.833 230.947C427.138 231.53 426.608 232.281 426.297 233.126C425.986 233.97 425.903 234.879 426.056 235.764ZM212.588 355.079C209.313 348.246 176.946 277.859 171.789 266.242C183.322 266.242 313.451 261.561 315.716 261.493C320.141 275.433 345.923 359.624 345.923 360.341C345.923 360.341 315.124 361.093 298.505 361.742C270.458 347.87 244.502 349.373 225.618 359.179C214.957 358.735 214.469 358.94 212.588 355.079ZM344.982 213.35C344.495 203.1 344.982 195.958 346.62 195.241C352.612 192.576 363.796 191.824 376.234 195.685C377.802 196.198 382.819 198.76 387.871 200.844C388.429 211.778 387.871 223.361 391.355 233.953C388.275 239.25 384.319 244.007 379.649 248.031C358.57 250.764 345.923 234.227 344.913 213.35H344.982ZM376.966 417.675C376.13 419.247 390.31 429.702 391.843 430.83C396.86 435.477 390.728 438.005 385.641 433.529C357.769 408.962 334.007 380.808 303.034 363.997C321.082 363.416 343.414 362.767 347.247 362.733C351.114 366.389 396.024 407.63 407.626 417.402C375.224 417.641 377.28 417.129 376.896 417.675H376.966ZM411.179 417.197C410.831 416.889 351.95 364.715 349.686 362.118C348.362 359.931 323.939 278.645 318.329 262.279C321.771 264.58 324.323 267.95 325.576 271.846C327.666 277.689 351.393 355.592 351.497 355.968C351.782 357.86 352.645 359.623 353.971 361.025C363.134 369.669 402.016 404.247 414.664 414.498C413.932 415.386 413.2 416.274 412.503 417.197H411.179ZM408.636 384.361C402.574 383.883 400.658 383.2 399.159 385.011C398.672 385.762 397.278 387.436 395.501 387.061C395.193 386.99 394.903 386.858 394.649 386.673C394.396 386.487 394.184 386.253 394.027 385.983C393.87 385.714 393.771 385.416 393.737 385.107C393.703 384.799 393.734 384.487 393.829 384.19C395.536 382.619 397.313 381.252 398.916 379.578C399.001 379.46 399.044 379.317 399.038 379.172C399.031 379.027 398.975 378.889 398.879 378.779C398.783 378.669 398.652 378.594 398.507 378.565C398.362 378.536 398.211 378.556 398.079 378.621C396.302 379.749 394.595 381.56 392.575 382.755C392.408 382.758 392.243 382.796 392.093 382.866C391.943 382.937 391.81 383.039 391.704 383.165C391.286 383.332 390.835 383.401 390.386 383.368C389.937 383.335 389.501 383.201 389.114 382.976C388.726 382.752 388.396 382.442 388.151 382.072C387.905 381.702 387.75 381.281 387.697 380.842C387.697 378.109 390.693 376.298 392.435 374.282C393.132 373.598 392.087 372.573 391.355 373.223C389.488 374.768 387.752 376.459 386.164 378.279C384.156 378.905 382.108 379.396 380.032 379.749C379.091 379.749 380.032 380.329 375.921 376.879C380.207 372.936 384.874 369.411 389.857 366.355C398.323 360.888 399.891 370.352 407.521 371.446C407.514 375.774 407.887 380.096 408.636 384.361ZM416.475 412.516L381.391 381.765C382.663 381.518 383.919 381.199 385.154 380.808C385.125 381.55 385.274 382.288 385.587 382.964C385.9 383.64 386.369 384.235 386.957 384.703C387.545 385.17 388.236 385.497 388.975 385.657C389.714 385.817 390.482 385.806 391.216 385.626C391.355 386.35 391.667 387.032 392.126 387.616C392.586 388.2 393.179 388.67 393.858 388.986C394.538 389.302 395.283 389.457 396.035 389.437C396.787 389.417 397.523 389.223 398.184 388.872C402.992 386.719 398.184 385.899 405.953 386.582C406.964 386.582 408.044 386.787 409.089 386.821C409.403 388.427 409.716 389.897 410.065 391.297C410.148 391.577 410.323 391.822 410.562 391.995C410.801 392.167 411.092 392.258 411.389 392.254C473.684 390.956 443.094 382.516 416.406 412.516H416.475ZM332.858 285.274C328.921 272.324 326.865 261.869 318.921 259.204C318.921 259.614 321.883 258.759 218.755 262.62C218.755 245.981 218.023 205.731 217.918 199.614H342.822C341.847 214.409 342.822 230.366 353.274 241.368C352.02 241.846 349.79 242.871 349.268 243.725C350.553 249.248 352.277 254.663 354.424 259.921C345.076 266.391 337.598 275.125 332.718 285.274H332.858ZM318.538 179.66C318.538 174.877 317.423 149.148 317.179 144.433H326.064C326.064 149.285 326.726 174.911 326.935 179.626C324.148 179.558 321.325 179.592 318.538 179.66ZM267.497 180.685C267.532 171.392 266.312 92.805 266.138 82.5545H275.022C275.022 108.522 275.789 173.476 275.928 180.549L267.497 180.685ZM212.518 95.7434H221.437C221.437 118.192 222.169 174.877 222.343 181.608H213.912C213.947 173.202 212.727 105.105 212.518 95.7434ZM136.879 187.724C136.391 184.82 132.35 93.83 130.712 58.9785C130.329 48.2498 133.221 35.0609 140.572 28.9448C140.572 52.8625 143.708 184.854 144.405 196.813C142.354 196.232 140.534 195.05 139.189 193.426C137.843 191.801 137.037 189.811 136.879 187.724ZM456.542 159.33C456.255 157.1 456.8 154.843 458.075 152.975C460.802 150.869 463.731 149.027 466.82 147.474C463.336 153.624 464.242 151.916 466.088 259.887C463.214 257.739 460.225 255.743 457.134 253.908C456.786 236.687 456.612 174.091 456.646 159.33H456.542ZM486.993 197.291C488.612 195.037 490.763 193.201 493.263 191.94C495.762 190.679 498.536 190.029 501.347 190.047C515.527 190.047 520.684 206.585 523.471 220.047C525.91 230.605 526.084 243.042 533.923 251.652C570.366 284.044 573.119 238.839 595.277 240.582C602.246 241.368 606.879 247.621 611.862 252.131C613.991 254.477 616.979 255.904 620.175 256.102C623.372 256.301 626.519 255.254 628.933 253.19V301.743C620.363 301.743 511.521 300.957 499.57 301.094C496.661 295.122 493.234 289.406 489.327 284.01C489.745 279.875 487.167 200.981 487.097 197.291H486.993ZM500.929 303.417C516.956 303.656 618.655 303.93 629.212 303.93C629.227 305.231 629.309 306.531 629.456 307.825C629.482 308.1 629.609 308.356 629.815 308.545C630.02 308.734 630.289 308.843 630.571 308.85C632.627 308.85 631.686 311.959 631.337 219.295C631.337 219.069 631.246 218.851 631.082 218.691C630.919 218.531 630.697 218.441 630.466 218.441C630.235 218.441 630.014 218.531 629.851 218.691C629.687 218.851 629.595 219.069 629.595 219.295C629.595 225.377 629.212 245.468 629.177 249.432C628.378 250.667 627.291 251.698 626.007 252.442C624.722 253.186 623.276 253.621 621.787 253.711C620.298 253.801 618.809 253.543 617.441 252.96C616.073 252.376 614.865 251.483 613.917 250.354C603.848 240.104 593.884 231.562 579.32 244.751C567.405 256.812 560.855 266.994 544.48 256.573C537.85 253.108 532.852 247.251 530.544 240.24C525.039 220.867 526.572 190.97 503.298 187.006C500.186 186.694 497.044 187.136 494.147 188.291C491.25 189.447 488.685 191.282 486.679 193.635C486.679 188.441 486.296 183.385 486.087 178.123C486.087 177.905 485.999 177.697 485.842 177.543C485.685 177.389 485.472 177.303 485.251 177.303C485.029 177.303 484.816 177.389 484.659 177.543C484.503 177.697 484.414 177.905 484.414 178.123C484.414 183.795 486.226 262.996 486.784 280.388C481.415 273.497 475.241 267.247 468.388 261.766C468.388 248.748 467.203 164.216 467.064 158.989C466.855 149.49 470.722 143.989 479.641 141.7C486.958 139.718 618.516 137.736 631.024 139.41C639.316 140.435 644.054 148.396 645.239 155.298C646.702 163.875 647.12 305.638 647.155 307.517C647.434 324.26 645.413 343.36 627.644 345.717C623.638 346.264 524.516 346.503 510.127 346.366C510.572 331.545 507.444 316.83 500.999 303.417H500.929ZM398.916 37.4526C403.096 44.6279 400.727 42.6462 403.689 160.663C389.265 154.273 368.848 160.15 354.912 167.496V66.2564C354.912 65.4705 356.724 65.7097 344.46 65.7097C343.693 65.7097 343.763 58.671 346.341 173.168C344.25 175.019 342.433 177.147 340.941 179.489H329.234C329.234 175.048 327.91 143.545 327.771 143.271C327.731 143.094 327.629 142.935 327.483 142.823C327.336 142.711 327.155 142.652 326.97 142.656C323.205 142.532 319.437 142.612 315.681 142.895C315.57 142.97 315.482 143.073 315.426 143.194C315.371 143.314 315.351 143.448 315.368 143.579C315.368 146.996 315.995 174.74 316.239 179.66L303.104 179.934C303.766 121.575 304.01 124.65 303.104 124.581C293.662 124.957 293.453 124.786 293.453 125.47V180.139L278.123 180.446C278.123 172.827 276.939 86.723 276.695 81.7345C276.705 81.5098 276.628 81.2896 276.479 81.1184C276.331 80.9472 276.121 80.8377 275.893 80.812C275.893 80.812 264.988 80.812 264.64 81.1536C263.629 81.9395 265.197 176.824 265.197 180.719L248.648 181.027V130.014C248.525 129.966 248.388 129.966 248.265 130.014C238.649 130.014 238.753 130.014 238.753 130.766V181.232L224.608 181.642C223.632 93.42 222.831 95.0259 223.179 95.0259C223.181 94.807 223.1 94.5953 222.952 94.4313C222.804 94.2674 222.6 94.1628 222.378 94.1375C222.378 94.1375 211.543 94.1375 211.194 94.4109C210.01 95.1284 211.682 175.833 211.682 181.915L192.52 182.257C192.624 49.104 193.007 55.2201 192.102 55.2201L183.566 55.5276C182.973 55.5276 183.182 47.3614 183.182 182.394C168.828 182.667 169.246 182.394 169.037 182.94C168.97 183.047 168.933 183.169 168.929 183.294C168.925 183.419 168.954 183.543 169.014 183.654C169.074 183.764 169.162 183.857 169.27 183.924C169.378 183.991 169.502 184.029 169.629 184.034C190.778 184.034 318.852 182.77 339.721 182.155C337.631 187.382 338.014 193.157 342.857 196.198V196.949C322.719 197.53 150.397 196.949 147.297 196.949C147.297 192.473 143.394 36.1543 143.36 27.4072C167.504 27.4072 380.276 27.7147 385.815 28.6031C388.531 29.0345 391.115 30.0522 393.381 31.5826C395.646 33.1131 397.537 35.1181 398.916 37.4526ZM19.1527 190.867C15.146 196.539 14.9369 203.92 14.9369 211.061C14.9369 212.632 19.8146 380.808 20.5463 384.908C20.963 387.884 22.0242 390.737 23.6588 393.277C25.2934 395.818 27.4633 397.985 30.0229 399.634C25.9277 399.432 21.9241 398.372 18.2816 396.525C10.547 392.357 7.6204 383.78 6.57518 379.031C4.72863 370.489 2.28978 223.771 2.70787 216.186C2.46399 203.612 6.81907 196.813 19.083 190.867H19.1527ZM541.762 577.274C555.707 576.321 569.369 572.942 582.108 567.297C591.166 563.197 602.455 556.705 607.123 551.546C607.855 567.673 604.51 578.094 587.612 585.714C565.245 595.964 512.182 608.538 489.257 593.538C487.202 591.591 482.289 576.796 480.338 569.962C490.337 576.489 519.464 579.017 541.693 577.274H541.762ZM226.663 622.035C223.737 621.795 222.343 624.666 221.368 626.75C213.215 643.834 213.319 644.927 205.027 645.474C202.414 645.645 177.817 647.627 176.005 647.627C169.664 648.071 166.145 643.8 170.64 638.572C173.202 636.677 176.045 635.179 179.071 634.13C188.757 629.722 204.087 618.071 207.466 603.652C210.963 607.681 215.734 610.448 221.019 611.511C227.563 612.199 234.162 610.874 239.903 607.718C238.579 615.098 235.513 638.094 235.13 645.303C233.093 645.093 231.045 645.002 228.998 645.03C228.963 643.082 228.301 622.171 226.594 622.035H226.663ZM239.485 604.438C234.957 607.578 229.525 609.218 223.981 609.119C221.048 608.902 218.192 608.096 215.59 606.75C212.989 605.404 210.698 603.547 208.86 601.295C208.86 600.235 208.477 588.789 208.581 582.639C219.87 583.512 231.201 583.729 242.516 583.288C241.958 586.295 240.182 598.493 239.415 604.438H239.485Z" fill="#4C0606"/>
<path d="M586.324 163.396C586.521 163.357 586.698 163.252 586.825 163.099C586.952 162.947 587.022 162.756 587.022 162.559C587.022 162.362 586.952 162.171 586.825 162.018C586.698 161.866 586.521 161.761 586.324 161.722H580.471C536.676 163.054 538.104 163.02 538.139 164.216C538.174 165.412 536.815 165.685 586.324 163.396ZM587.787 171.391C579.983 171.391 549.462 171.801 541.623 172.416C541.348 172.463 541.099 172.603 540.919 172.813C540.74 173.022 540.641 173.287 540.641 173.561C540.641 173.835 540.74 174.099 540.919 174.309C541.099 174.518 541.348 174.659 541.623 174.705C549.602 174.705 579.948 173.168 587.822 172.86C587.992 172.82 588.144 172.724 588.25 172.588C588.357 172.452 588.413 172.284 588.409 172.112C588.405 171.94 588.341 171.775 588.228 171.644C588.115 171.513 587.959 171.423 587.787 171.391ZM580.122 183.965C574.687 184.17 557.232 183.965 540.578 183.965C540.208 183.965 539.854 184.109 539.593 184.365C539.331 184.622 539.184 184.969 539.184 185.332C539.184 185.694 539.331 186.042 539.593 186.298C539.854 186.554 540.208 186.698 540.578 186.698C544.062 186.938 576.743 185.605 580.157 185.468C580.36 185.464 580.553 185.38 580.694 185.236C580.834 185.092 580.911 184.899 580.906 184.7C580.902 184.5 580.816 184.311 580.669 184.173C580.522 184.035 580.326 183.961 580.122 183.965ZM467.866 13.2271C463.783 14.2103 460.049 16.2613 457.061 19.1615C454.073 22.0618 451.943 25.7026 450.898 29.6961C447.031 44.2175 460.445 60.0373 475.879 57.5089C479.252 56.8104 482.444 55.4441 485.26 53.4935C488.075 51.5429 490.455 49.0492 492.254 46.1651C494.012 42.9819 495.009 39.4491 495.172 35.8328C495.335 32.2165 494.659 28.6112 493.195 25.2884C491.104 19.4115 484.903 10.0153 467.866 13.2271ZM476.297 42.0308C469.573 46.5751 461.699 38.3064 464.8 33.2154C470.374 24.1267 480.269 30.9945 480.513 34.4113C480.509 35.9283 480.118 37.4203 479.376 38.7512C478.633 40.082 477.563 41.2095 476.262 42.0308H476.297ZM475.879 26.4843C473.528 25.7587 470.997 25.8178 468.684 26.6524C466.37 27.487 464.404 29.05 463.093 31.097C462.021 32.9398 461.616 35.0842 461.945 37.1811C462.274 39.2781 463.317 41.2041 464.904 42.6458C466.169 43.836 467.723 44.6881 469.419 45.1207C471.116 45.5532 472.897 45.5517 474.592 45.1164C476.288 44.681 477.841 43.8262 479.103 42.6339C480.365 41.4416 481.295 39.9516 481.802 38.3064C484.775 40.2189 488.101 41.5421 491.592 42.2016C490.359 45.1531 488.467 47.7962 486.055 49.9366C483.643 52.077 480.773 53.6604 477.656 54.5704C463.72 58.5339 451.316 46.1309 452.884 32.737C453.343 29.6176 454.519 26.6413 456.323 24.0326C458.126 21.4239 460.51 19.2511 463.295 17.6782C466.08 16.1053 469.193 15.1734 472.399 14.9528C475.605 14.7321 478.82 15.2286 481.802 16.4047C479.043 19.2639 477.003 22.7154 475.844 26.4843H475.879Z" fill="#742A49"/>
<path d="M436.509 71.8939C445.01 71.4497 600.678 70.288 612.036 66.9737C620.781 65.4019 623.777 61.4384 623.325 52.7939C623.325 49.9238 623.812 17.0199 622.906 11.1772C622.105 3.96768 618.168 0.550875 609.876 0.10669C602.908 -0.542504 441.422 1.9176 433.791 3.5235C427.59 4.71938 423.339 6.94031 422.503 13.7739C422.12 15.8582 423.792 54.434 424.001 58.1925C424.489 66.3245 428.635 71.1422 436.509 71.8939ZM450.097 69.5704C448.045 69.328 446.075 68.6411 444.327 67.5597C442.58 66.4783 441.099 65.0293 439.993 63.3177C437.537 59.1697 436.273 54.4466 436.335 49.6504C435.952 43.8419 434.837 22.316 434.697 17.1224C434.697 15.004 434.697 7.96535 439.993 5.43691C448.181 4.61688 600.713 2.39595 607.228 2.60096C610.712 2.60096 615.416 2.87431 618.064 5.50525C621.966 9.36624 620.712 15.7557 620.955 52.4864C621.722 61.8484 618.098 63.8985 609.179 65.1627C601.166 66.3586 451.491 69.5704 450.167 69.5704H450.097ZM432.328 12.7831C431.875 15.8582 433.722 45.2427 433.896 49.1379C434.314 58.8075 437.136 65.6753 442.711 69.6388H439.227C430.726 69.6388 426.858 65.6411 426.475 57.1332C426.266 52.2814 424.663 16.1315 425.012 14.0814C425.743 7.86285 430.029 6.49612 435.708 5.81276C433.947 7.77769 432.798 10.1969 432.398 12.7831H432.328Z" fill="#4E0B0B"/>
<path d="M514.552 21.6323C515.841 21.6323 555.838 20.6414 555.49 20.6414C555.669 20.6041 555.831 20.5073 555.946 20.3674C556.062 20.2274 556.125 20.0528 556.125 19.8726C556.125 19.6925 556.062 19.5179 555.946 19.3779C555.831 19.238 555.669 19.1412 555.49 19.1039C552.528 19.1039 518.001 18.523 514.482 19.1039C514.214 19.1992 513.983 19.375 513.822 19.6064C513.661 19.8378 513.579 20.1129 513.587 20.3927C513.595 20.6726 513.692 20.943 513.865 21.1655C514.038 21.388 514.279 21.5513 514.552 21.6323ZM567.754 32.3611C562.737 32.8394 512.357 31.1652 512.009 33.6595C512.009 34.1378 512.461 34.5137 512.81 34.582C517.2 35.0945 567.579 34.0353 567.928 34.0011C568.038 33.9899 568.144 33.9576 568.241 33.906C568.338 33.8545 568.424 33.7846 568.494 33.7006C568.563 33.6165 568.615 33.5198 568.647 33.416C568.678 33.3122 568.688 33.2034 568.677 33.0957C568.665 32.988 568.633 32.8836 568.58 32.7884C568.527 32.6932 568.456 32.6091 568.37 32.5409C568.285 32.4726 568.186 32.4217 568.08 32.3908C567.974 32.36 567.863 32.3499 567.754 32.3611ZM566.743 45.4816C558.138 45.4816 514.761 45.2766 512.496 45.6525C512.273 45.7104 512.076 45.8389 511.936 46.0182C511.795 46.1974 511.719 46.4172 511.719 46.6433C511.719 46.8695 511.795 47.0893 511.936 47.2685C512.076 47.4477 512.273 47.5763 512.496 47.6342C514.9 48.0101 563.224 46.9167 566.778 46.8142C566.931 46.7761 567.067 46.688 567.162 46.5645C567.258 46.4409 567.307 46.2892 567.303 46.1343C567.299 45.9793 567.242 45.8303 567.14 45.7117C567.038 45.5931 566.898 45.512 566.743 45.4816ZM74.1663 264.362C97.7535 262.483 110.261 232.689 91.9351 216.151C91.2731 215.57 92.5274 214.272 73.2257 241.641C49.8824 219.944 51.1367 220.764 50.6141 221.14C32.1485 239.01 50.4399 266.276 74.1663 264.362Z" fill="#903B5E"/>
<path d="M71.5877 230.434C72.2497 231.152 71.9361 231.254 87.7189 205.15C87.7568 205.092 87.7823 205.027 87.794 204.959C87.8058 204.891 87.8034 204.822 87.7872 204.755C87.7709 204.688 87.7411 204.625 87.6994 204.569C87.6577 204.514 87.6051 204.467 87.5447 204.432C81.979 201.56 75.6023 200.569 69.4037 201.613C63.2051 202.657 57.531 205.678 53.2615 210.207C52.8434 210.719 52.2163 209.728 71.5877 230.434ZM35.1792 357.027C36.0728 357.021 36.9448 356.757 37.6853 356.266C38.4258 355.775 39.0017 355.081 39.3406 354.27C39.6796 353.459 39.7664 352.568 39.59 351.709C39.4137 350.85 38.9822 350.061 38.3497 349.442C40.0918 346.674 51.3801 328.463 54.69 323.542C55.5478 323.931 56.5051 324.058 57.4373 323.906C58.3695 323.753 59.2333 323.329 59.9161 322.688L76.0125 334.852C75.75 335.614 75.7032 336.431 75.877 337.216C76.0509 338.002 76.4388 338.726 76.9995 339.313C77.5603 339.899 78.2727 340.325 79.061 340.546C79.8493 340.766 80.6838 340.773 81.4755 340.565C82.2673 340.357 82.9866 339.942 83.5569 339.364C84.1271 338.787 84.5269 338.069 84.7136 337.286C84.9002 336.503 84.8668 335.685 84.6168 334.92C84.3668 334.154 83.9097 333.469 83.2942 332.939L89.008 325.558C90.0307 326.017 91.1901 326.09 92.2639 325.762C93.3376 325.434 94.2502 324.729 94.8264 323.782L111.48 329.317C111.39 330.052 111.489 330.797 111.767 331.485C112.046 332.173 112.495 332.782 113.075 333.256C113.654 333.731 114.345 334.055 115.085 334.201C115.825 334.347 116.591 334.309 117.312 334.091C118.033 333.873 118.687 333.481 119.215 332.952C119.743 332.423 120.127 331.773 120.334 331.061C120.54 330.349 120.562 329.598 120.397 328.875C120.232 328.153 119.885 327.483 119.389 326.925C120.783 322.039 132.838 285.923 134.057 282.506C135.227 282.406 136.313 281.868 137.088 281.003C140.398 283.566 150.328 290.843 153.533 292.962C153.35 293.669 153.347 294.41 153.525 295.118C153.703 295.827 154.056 296.481 154.554 297.024C155.051 297.567 155.677 297.981 156.376 298.23C157.076 298.479 157.827 298.556 158.563 298.452C159.3 298.349 159.999 298.07 160.599 297.639C161.2 297.207 161.682 296.638 162.005 295.98C162.327 295.323 162.479 294.597 162.448 293.868C162.417 293.139 162.203 292.429 161.825 291.8C171.093 277.313 171.511 277.552 170.535 276.903C170.352 276.791 170.132 276.75 169.92 276.788C169.708 276.826 169.517 276.94 169.385 277.108C167.748 279.431 160.013 290.092 160.013 290.092C159.189 289.694 158.264 289.543 157.353 289.659C156.442 289.774 155.586 290.151 154.892 290.741C151.651 288.52 141.373 281.311 138.098 278.816C138.238 278.028 138.158 277.217 137.867 276.469C137.576 275.722 137.084 275.065 136.444 274.569C135.803 274.073 135.038 273.756 134.229 273.651C133.42 273.546 132.597 273.658 131.847 273.974C131.097 274.29 130.449 274.799 129.97 275.447C129.49 276.095 129.199 276.858 129.125 277.655C129.052 278.452 129.199 279.254 129.552 279.976C129.905 280.697 130.451 281.312 131.13 281.755C128.134 289.75 119.424 317.426 117.194 325.49C116.357 325.278 115.476 325.3 114.651 325.554C113.826 325.808 113.09 326.282 112.525 326.925C109.041 325.763 98.5892 322.654 95.4187 321.663C95.4187 320.494 94.9452 319.373 94.1023 318.546C93.2594 317.72 92.1162 317.255 90.9243 317.255C89.7323 317.255 88.5891 317.72 87.7462 318.546C86.9033 319.373 86.4298 320.494 86.4298 321.663C86.4373 322.639 86.7674 323.586 87.3705 324.362L81.134 331.982C80.5367 331.853 79.9187 331.848 79.319 331.966C78.7193 332.083 78.151 332.321 77.65 332.665L61.031 320.331C61.2124 319.273 60.9943 318.187 60.4176 317.275C59.8409 316.364 58.9452 315.69 57.8983 315.38C56.8514 315.07 55.7251 315.145 54.7304 315.591C53.7358 316.037 52.941 316.823 52.495 317.802C52.1485 318.506 52.0073 319.291 52.0873 320.069C52.1672 320.847 52.4651 321.588 52.948 322.21C49.6729 327.027 37.7923 345.649 36.0851 348.348C35.4598 348.194 34.808 348.174 34.1739 348.289C33.5399 348.404 32.9385 348.651 32.4105 349.014C31.8826 349.377 31.4404 349.847 31.1141 350.392C30.7877 350.938 30.5848 351.545 30.5192 352.174C30.4535 352.803 30.5266 353.439 30.7336 354.038C30.9405 354.637 31.2763 355.185 31.7184 355.645C32.1604 356.105 32.6983 356.467 33.2954 356.706C33.8926 356.944 34.535 357.054 35.1792 357.027ZM95.8019 369.123C95.5432 369.123 95.2951 369.223 95.1121 369.403C94.9292 369.582 94.8264 369.826 94.8264 370.079C94.8264 370.333 94.9292 370.576 95.1121 370.756C95.2951 370.935 95.5432 371.036 95.8019 371.036C101.899 371.036 173.462 368.303 175.935 368.268C176.098 368.233 176.243 368.144 176.347 368.017C176.452 367.89 176.508 367.731 176.508 367.568C176.508 367.405 176.452 367.246 176.347 367.119C176.243 366.992 176.098 366.903 175.935 366.867C166.215 366.902 102.038 368.439 95.8019 369.123ZM126.427 344.692C126.649 344.692 126.861 344.606 127.018 344.452C127.175 344.298 127.263 344.09 127.263 343.872C127.263 343.655 127.175 343.446 127.018 343.293C126.861 343.139 126.649 343.052 126.427 343.052C123.674 343.052 113.71 342.471 111.376 342.574C110.969 342.574 110.579 342.732 110.292 343.014C110.004 343.296 109.843 343.679 109.843 344.077C109.843 344.476 110.004 344.858 110.292 345.14C110.579 345.422 110.969 345.581 111.376 345.581C113.675 345.854 123.535 344.932 126.427 344.692ZM89.1822 349.066H74.1659C73.8412 349.081 73.5265 349.181 73.255 349.356C72.9834 349.532 72.7649 349.775 72.6224 350.062C72.4798 350.348 72.4186 350.667 72.4449 350.985C72.4713 351.303 72.5844 351.608 72.7723 351.868C73.713 353.234 74.4446 352.175 89.2519 350.945C89.4357 350.859 89.5898 350.722 89.6953 350.551C89.8007 350.38 89.853 350.183 89.8456 349.983C89.8382 349.783 89.7715 349.59 89.6536 349.427C89.5357 349.264 89.3719 349.139 89.1822 349.066ZM29.7789 367.312C30.5106 367.312 41.1021 366.184 43.4365 366.082C43.6952 366.082 43.9433 365.981 44.1263 365.801C44.3092 365.622 44.412 365.379 44.412 365.125C44.412 364.871 44.3092 364.628 44.1263 364.448C43.9433 364.269 43.6952 364.168 43.4365 364.168C42.0777 364.168 30.3015 364.647 29.5002 365.022C29.2875 365.148 29.1163 365.331 29.0071 365.55C28.898 365.769 28.8556 366.014 28.8851 366.255C28.9145 366.497 29.0145 366.725 29.1731 366.913C29.3317 367.1 29.542 367.239 29.7789 367.312Z" fill="#C45A5A"/>
<path d="M152.732 308.064H153.29C168.097 306.766 167.574 307.756 168.201 307.073C168.317 306.939 168.393 306.776 168.421 306.603C168.449 306.429 168.427 306.252 168.359 306.089C168.29 305.927 168.178 305.786 168.033 305.683C167.889 305.579 167.718 305.516 167.539 305.501C162.348 305.501 157.47 305.057 152.802 305.262C150.816 305.296 150.99 308.064 152.732 308.064ZM74.8284 278.235C74.4496 278.235 74.0863 278.383 73.8184 278.645C73.5505 278.908 73.4 279.265 73.4 279.636C73.4 280.008 73.5505 280.364 73.8184 280.627C74.0863 280.889 74.4496 281.037 74.8284 281.037C79.8107 281.037 99.2169 279.294 103.92 278.816C104.143 278.774 104.344 278.657 104.489 278.486C104.633 278.314 104.712 278.099 104.712 277.876C104.712 277.654 104.633 277.438 104.489 277.267C104.344 277.095 104.143 276.979 103.92 276.937C99.0775 277.313 79.6365 277.825 74.8284 278.235ZM72.4593 286.23C72.179 286.299 71.9338 286.465 71.7697 286.698C71.6056 286.931 71.5339 287.215 71.5682 287.496C71.6024 287.777 71.7402 288.036 71.9556 288.225C72.171 288.413 72.4493 288.518 72.738 288.52C78.2428 288.52 99.844 286.606 105.279 286.572C105.519 286.572 105.75 286.479 105.92 286.312C106.09 286.145 106.185 285.919 106.185 285.684C106.185 285.448 106.09 285.222 105.92 285.056C105.75 284.889 105.519 284.795 105.279 284.795C94.3188 284.559 83.3546 285.038 72.4593 286.23ZM102.492 291.697C93.3741 291.569 84.2558 291.922 75.1769 292.757C73.5045 292.962 73.4348 295.456 75.1769 295.456C78.2777 295.456 95.2102 293.747 102.527 293.474C102.646 293.472 102.763 293.447 102.872 293.4C102.981 293.353 103.08 293.286 103.162 293.202C103.245 293.118 103.309 293.019 103.353 292.91C103.396 292.801 103.417 292.685 103.415 292.569C103.413 292.452 103.387 292.337 103.34 292.23C103.292 292.123 103.223 292.026 103.138 291.945C103.052 291.865 102.951 291.801 102.84 291.758C102.729 291.716 102.611 291.695 102.492 291.697ZM113.954 218.099C115.662 218.099 133.047 216.323 136.462 216.083C136.702 216.083 136.932 215.99 137.102 215.823C137.272 215.657 137.367 215.431 137.367 215.195C137.367 214.959 137.272 214.733 137.102 214.567C136.932 214.4 136.702 214.307 136.462 214.307C134.754 214.307 116.115 214.853 114.059 214.99C112.003 215.127 112.003 218.099 113.954 218.099ZM117.543 225.001C123.013 225.001 144.336 223.02 149.736 222.678C149.933 222.639 150.11 222.534 150.237 222.381C150.364 222.229 150.434 222.038 150.434 221.841C150.434 221.644 150.364 221.453 150.237 221.3C150.11 221.148 149.933 221.043 149.736 221.004C144.301 221.243 122.839 221.345 117.508 221.892C117.129 221.951 116.784 222.142 116.536 222.431C116.288 222.719 116.154 223.084 116.158 223.461C116.162 223.838 116.304 224.201 116.559 224.484C116.813 224.766 117.162 224.95 117.543 225.001Z" fill="black"/>
</svg>
